<svg fill="none" height="32" viewBox="0 0 67 32" width="67" xmlns="http://www.w3.org/2000/svg"><rect fill="white" height="30.5" rx="15.25" width="63.6339" x="1.64062" y="0.75"/><rect height="30.5" rx="15.25" stroke="#EEC051" stroke-width="1.5" width="63.6339" x="1.64062" y="0.75"/><path d="M30.3478 13.6785C28.973 13.6785 27.8846 14.7986 27.8846 16.2875C27.8846 17.7765 28.973 18.8965 30.3478 18.8965C31.7226 18.8965 32.811 17.7765 32.811 16.2875V16.1742C32.7621 14.7519 31.7226 13.6785 30.3478 13.6785Z" fill="url(#paint0_linear_10533_269006--:r1:)"/><path clip-rule="evenodd" d="M12.3086 11.074C12.3086 10.0084 13.1725 9.14453 14.2381 9.14453H52.3524C53.4181 9.14453 54.282 10.0084 54.282 11.074V14.1952C54.2121 14.2017 54.1431 14.2116 54.0754 14.2247C53.1073 14.4124 52.3763 15.2646 52.3763 16.2875C52.3763 17.3105 53.1073 18.1627 54.0754 18.3504C54.1431 18.3635 54.2121 18.3734 54.282 18.3798V21.5007C54.282 22.5664 53.4181 23.4302 52.3524 23.4302H18.4316V19.5365C19.1651 20.1811 20.1096 20.5338 21.0858 20.5277C23.389 20.5277 25.1325 18.6565 25.1325 16.2875C25.1325 13.9186 23.389 12.0474 21.0858 12.0474C20.1063 12.0386 19.1591 12.3978 18.4316 13.0541V12.943C18.4014 12.7311 18.2958 12.5372 18.1343 12.3969C17.9727 12.2567 17.766 12.1794 17.552 12.1794C17.3381 12.1794 17.1314 12.2567 16.9698 12.3969C16.8083 12.5372 16.7027 12.7311 16.6725 12.943V23.4302H14.2381C13.1725 23.4302 12.3086 22.5664 12.3086 21.5007L12.3088 18.3798C12.3787 18.3734 12.4476 18.3635 12.5154 18.3504C13.4835 18.1627 14.2145 17.3105 14.2145 16.2875C14.2145 15.2646 13.4835 14.4124 12.5154 14.2247C12.4476 14.2116 12.3785 14.2017 12.3086 14.1952V11.074ZM39.3365 17.148C39.2388 17.1189 39.138 17.0903 39.0342 17.0621C38.978 17.0457 38.9215 17.029 38.8648 17.012C38.5845 16.9351 38.3018 16.8407 38.0136 16.7393C37.989 16.7309 37.9604 16.7207 37.936 16.7119C37.6235 16.5981 37.3364 16.4537 37.0716 16.2908C36.2777 15.8022 36.0728 15.127 36.0728 14.5787C36.0728 14.0713 36.1756 13.5934 36.4759 13.1946C36.7761 12.7959 37.1271 12.5237 37.6004 12.3213C38.0738 12.1189 38.6715 12.0472 39.192 12.0472C39.5214 12.0472 39.8669 12.0877 40.2297 12.1675C40.5913 12.2473 40.9368 12.3756 41.2673 12.5526C41.5967 12.7284 41.8742 12.9608 42.0976 13.2499C42.1651 13.3423 42.2248 13.4383 42.2698 13.5576C42.3642 13.8082 42.3238 14.2791 41.9474 14.4922C41.6691 14.6332 41.3869 14.6232 41.1739 14.5554C41.0686 14.5218 40.9598 14.4496 40.8771 14.3875C40.8033 14.3314 40.6225 14.1956 40.4645 14.0977C40.3219 14.0124 40.1397 13.9075 39.9868 13.8545C39.7211 13.755 39.4022 13.6749 39.088 13.6785C38.1557 13.6785 37.9656 14.1697 37.9496 14.4547C37.9496 14.7964 38.2173 15.007 38.416 15.0827C38.4616 15.1001 38.506 15.1167 38.5568 15.1346C38.5984 15.1494 38.6458 15.1653 38.6921 15.1824C38.7663 15.2098 38.8431 15.2365 38.9221 15.263C39.0318 15.299 39.1443 15.3344 39.2597 15.3694C39.2851 15.377 39.3107 15.3845 39.3365 15.392C39.4099 15.4133 39.4849 15.4343 39.5617 15.4552C39.6179 15.4716 39.6743 15.4883 39.7311 15.5052C40.0083 15.5813 40.2902 15.6754 40.5751 15.7755C40.599 15.7837 40.6361 15.797 40.66 15.8057C40.9764 15.9225 41.2857 16.0846 41.5207 16.2372C41.6456 16.3182 41.7763 16.4201 41.869 16.5109C42.4142 17.0023 42.729 17.9143 42.3767 18.8346C42.1892 19.3243 41.803 19.7927 41.2216 20.1237C40.7424 20.3966 40.0211 20.5593 39.2512 20.5241C38.9218 20.5241 38.5763 20.4837 38.2135 20.4039C37.8519 20.3241 37.3081 20.1416 36.9775 19.9647C36.6482 19.7889 36.16 19.4155 35.9366 19.1264C35.8691 19.034 35.8094 18.938 35.7644 18.8187C35.6699 18.5681 35.6674 18.0734 36.0868 17.8136C36.3468 17.6524 36.67 17.682 36.8603 17.7504C37.0257 17.8099 37.2042 17.9425 37.2699 18.0072C37.7461 18.4764 38.4129 18.7904 39.1173 18.8632C39.9956 18.954 40.6779 18.6461 40.6615 18.0184C40.6474 17.7702 40.4765 17.5477 40.1385 17.42C39.8502 17.3034 39.5297 17.2033 39.3365 17.148ZM46.9085 17.0621C47.0123 17.0903 47.1131 17.1189 47.2108 17.148C47.404 17.2033 47.7245 17.3034 48.0128 17.42C48.3508 17.5477 48.5217 17.7702 48.5358 18.0184C48.5522 18.6461 47.8698 18.954 46.9916 18.8632C46.2872 18.7904 45.6204 18.4764 45.1442 18.0072C45.0785 17.9425 44.9 17.8099 44.7345 17.7504C44.5443 17.682 44.2211 17.6524 43.961 17.8136C43.5417 18.0734 43.5442 18.5681 43.6387 18.8187C43.6837 18.938 43.7434 19.034 43.8109 19.1264C44.0343 19.4155 44.5225 19.7889 44.8518 19.9647C45.1824 20.1416 45.7262 20.3241 46.0878 20.4039C46.4506 20.4837 46.7961 20.5241 47.1255 20.5241C47.8954 20.5593 48.6167 20.3966 49.0959 20.1237C49.6773 19.7927 50.0635 19.3243 50.251 18.8346C50.6033 17.9143 50.2885 17.0023 49.7432 16.5109C49.6506 16.4201 49.5198 16.3182 49.395 16.2372C49.16 16.0846 48.8507 15.9225 48.5343 15.8057C48.5104 15.797 48.4733 15.7837 48.4494 15.7755C48.1645 15.6754 47.8826 15.5813 47.6053 15.5052C47.5486 15.4883 47.4922 15.4716 47.436 15.4552C47.3592 15.4343 47.2841 15.4133 47.2108 15.392C47.185 15.3845 47.1594 15.377 47.134 15.3694C47.0186 15.3344 46.9061 15.299 46.7964 15.263C46.7173 15.2365 46.6406 15.2098 46.5664 15.1824C46.5201 15.1653 46.4763 15.1499 46.4347 15.1351C46.3838 15.1171 46.336 15.1002 46.2903 15.0827C46.0916 15.007 45.8239 14.7964 45.8239 14.4547C45.8399 14.1697 46.03 13.6785 46.9623 13.6785C47.2765 13.6749 47.5954 13.755 47.8611 13.8545C48.014 13.9075 48.1962 14.0124 48.3388 14.0977C48.4968 14.1956 48.6776 14.3314 48.7514 14.3875C48.8341 14.4496 48.9429 14.5218 49.0482 14.5554C49.2612 14.6232 49.5434 14.6332 49.8217 14.4922C50.1981 14.2791 50.2385 13.8082 50.1441 13.5576C50.0991 13.4383 50.0394 13.3423 49.9719 13.2499C49.7485 12.9608 49.471 12.7284 49.1416 12.5526C48.8111 12.3756 48.4656 12.2473 48.1039 12.1675C47.7412 12.0877 47.3957 12.0472 47.0663 12.0472C46.5458 12.0472 45.9481 12.1189 45.4747 12.3213C45.0014 12.5237 44.6504 12.7959 44.3501 13.1946C44.0499 13.5934 43.9471 14.0713 43.9471 14.5787C43.9471 15.127 44.152 15.8022 44.9459 16.2908C45.2107 16.4537 45.4978 16.5981 45.8103 16.7119C45.8347 16.7207 45.8633 16.7309 45.8879 16.7393C46.1761 16.8407 46.4588 16.9351 46.7391 17.012C46.7958 17.029 46.8523 17.0457 46.9085 17.0621ZM32.811 19.9765V19.5365C32.0775 20.1811 31.133 20.5338 30.1568 20.5277C27.8536 20.5277 26.11 18.6565 26.11 16.2875C26.11 13.9186 27.8536 12.0474 30.1568 12.0474C31.1363 12.0386 32.0835 12.3978 32.811 13.0541V12.943C32.8412 12.7311 32.9467 12.5372 33.1083 12.3969C33.2699 12.2567 33.4766 12.1794 33.6905 12.1794C33.9044 12.1794 34.1112 12.2567 34.2727 12.3969C34.4343 12.5372 34.5399 12.7311 34.5701 12.943V19.9765C34.5399 20.1884 34.4343 20.3822 34.2727 20.5225C34.1112 20.6628 33.9044 20.74 33.6905 20.74C33.4766 20.74 33.2699 20.6628 33.1083 20.5225C32.9467 20.3822 32.8412 20.1884 32.811 19.9765Z" fill="url(#paint1_linear_10533_269006--:r1:)" fill-rule="evenodd"/><path d="M23.3579 16.2875C23.3579 14.7986 22.2696 13.6785 20.8948 13.6785C19.5199 13.6785 18.4804 14.7519 18.4316 16.1742V16.2875C18.4316 17.7765 19.5199 18.8965 20.8948 18.8965C22.2696 18.8965 23.3579 17.7765 23.3579 16.2875Z" fill="url(#paint2_linear_10533_269006--:r1:)"/><defs><linearGradient gradientUnits="userSpaceOnUse" id="paint0_linear_10533_269006--:r1:" x1="33.2953" x2="33.2953" y1="9.14453" y2="23.4302"><stop stop-color="#E4A90F"/><stop offset="1" stop-color="#CB8F02"/></linearGradient><linearGradient gradientUnits="userSpaceOnUse" id="paint1_linear_10533_269006--:r1:" x1="33.2953" x2="33.2953" y1="9.14453" y2="23.4302"><stop stop-color="#E4A90F"/><stop offset="1" stop-color="#CB8F02"/></linearGradient><linearGradient gradientUnits="userSpaceOnUse" id="paint2_linear_10533_269006--:r1:" x1="33.2953" x2="33.2953" y1="9.14453" y2="23.4302"><stop stop-color="#E4A90F"/><stop offset="1" stop-color="#CB8F02"/></linearGradient></defs></svg>