<svg fill="none" height="18" viewBox="0 0 12 14" width="18" xmlns="http://www.w3.org/2000/svg"><path clip-rule="evenodd" d="M6 12.5C9.31371 12.5 12 9.81371 12 6.5C12 3.18629 9.31371 0.5 6 0.5C2.68629 0.5 0 3.18629 0 6.5C0 8.56414 1.04233 10.3848 2.62936 11.4645V3.80168C2.65431 3.62648 2.7416 3.46617 2.87519 3.35019C3.00879 3.23422 3.17972 3.17037 3.35658 3.17037C3.53345 3.17037 3.70438 3.23422 3.83798 3.35019C3.97157 3.46617 4.05886 3.62648 4.08381 3.80168V3.89355C4.68535 3.35093 5.46848 3.05389 6.27836 3.06118C8.18275 3.06118 9.62435 4.60832 9.62435 6.56705C9.62435 8.52579 8.18275 10.0729 6.27836 10.0729C5.47121 10.078 4.6903 9.78635 4.08381 9.25342V12.1875C4.68554 12.3902 5.32994 12.5 6 12.5ZM6.12043 4.40988C7.25718 4.40988 8.15704 5.33595 8.15704 6.56705C8.15704 7.79815 7.25718 8.72424 6.12043 8.72424C4.98367 8.72424 4.08381 7.79815 4.08381 6.56705V6.47335C4.12421 5.29737 4.98367 4.40988 6.12043 4.40988Z" fill="url(#paint0_linear_3164_33378)" fill-rule="evenodd"/><defs><linearGradient gradientUnits="userSpaceOnUse" id="paint0_linear_3164_33378" x1="6" x2="6" y1="0.5" y2="12.5"><stop stop-color="#E4A90F"/><stop offset="1" stop-color="#CB8F02"/></linearGradient></defs></svg>