<svg xmlns="http://www.w3.org/2000/svg" width="358" height="122" fill="none" viewBox="0 0 358 122"><path fill="url(#paint0_linear_7369_353344)" d="M153.527 38.588c-11.701 0-20.963 9.532-20.963 22.204s9.262 22.205 20.963 22.205 20.964-9.533 20.964-22.205v-.964c-.416-12.105-9.263-21.24-20.964-21.24Z"/><path fill="url(#paint1_linear_7369_353344)" fill-rule="evenodd" d="M0 16.422C0 7.352 7.352 0 16.422 0h324.381c9.069 0 16.422 7.352 16.422 16.422v26.563c-.595.055-1.182.14-1.758.251-8.24 1.597-14.461 8.85-14.461 17.556 0 8.706 6.221 15.96 14.461 17.556.576.112 1.163.196 1.758.251v26.562c0 9.069-7.353 16.421-16.422 16.421H52.111V88.444a33.901 33.901 0 0 0 22.59 8.435c19.602 0 34.44-15.925 34.44-36.087 0-20.162-14.838-36.087-34.44-36.087a33.277 33.277 0 0 0-22.59 8.568v-.946a7.567 7.567 0 0 0-7.485-6.498 7.558 7.558 0 0 0-7.486 6.498v89.255H16.422C7.352 121.582 0 114.23 0 105.161l.002-26.562a17.856 17.856 0 0 0 1.758-.25c8.24-1.598 14.46-8.85 14.46-17.557 0-8.706-6.22-15.959-14.46-17.556a17.857 17.857 0 0 0-1.758-.25L0 16.421Zm230.027 51.693c-.831-.247-1.688-.49-2.572-.73-.478-.14-.959-.282-1.442-.427-2.385-.654-4.791-1.458-7.244-2.32a40.405 40.405 0 0 1-8.017-3.817c-6.757-4.159-8.501-9.906-8.501-14.572 0-4.318.875-8.386 3.431-11.78 2.555-3.393 5.542-5.71 9.571-7.432 4.028-1.723 9.115-2.333 13.545-2.333 2.803 0 5.744.345 8.831 1.024a34.262 34.262 0 0 1 8.831 3.277c2.803 1.496 5.166 3.474 7.067 5.935.574.786 1.082 1.603 1.465 2.619.804 2.132.46 6.14-2.743 7.954a8.7 8.7 0 0 1-6.583.537c-.897-.285-1.823-.9-2.527-1.428-.628-.478-2.167-1.634-3.511-2.467-1.214-.726-2.765-1.619-4.066-2.07-2.261-.846-4.975-1.528-7.649-1.497-7.934 0-9.553 4.18-9.689 6.606 0 2.907 2.278 4.7 3.969 5.344.389.149.767.29 1.199.442.354.126.757.262 1.151.407.632.233 1.285.46 1.958.686.934.306 1.891.608 2.873.905a118.738 118.738 0 0 0 2.57.73c.478.14.959.282 1.442.426 2.359.648 4.759 1.449 7.183 2.3.204.07.519.183.723.257a38.454 38.454 0 0 1 7.325 3.673c1.063.69 2.175 1.556 2.964 2.33 4.641 4.182 7.319 11.944 4.321 19.776-1.596 4.167-4.882 8.154-9.831 10.971-4.078 2.322-10.217 3.707-16.77 3.408-2.803 0-5.743-.344-8.831-1.024-3.077-.679-7.706-2.231-10.519-3.737-2.803-1.496-6.958-4.675-8.859-7.135-.575-.786-1.082-1.603-1.465-2.619-.804-2.132-.826-6.342 2.743-8.554 2.213-1.372 4.964-1.12 6.583-.538 1.408.506 2.928 1.636 3.486 2.186 4.053 3.993 9.728 6.666 15.723 7.285 7.475.773 13.282-1.848 13.142-7.19-.12-2.112-1.574-4.006-4.451-5.092-2.453-.993-5.181-1.845-6.826-2.316Zm64.444-.73c.884.24 1.741.483 2.572.73 1.645.471 4.373 1.323 6.826 2.316 2.877 1.086 4.331 2.98 4.451 5.093.14 5.341-5.667 7.962-13.142 7.19-5.995-.62-11.67-3.293-15.723-7.286-.558-.55-2.078-1.68-3.486-2.186-1.619-.582-4.37-.834-6.583.538-3.569 2.212-3.547 6.422-2.743 8.554.383 1.016.89 1.833 1.465 2.619 1.901 2.46 6.056 5.639 8.859 7.135 2.813 1.506 7.442 3.058 10.519 3.737 3.088.68 6.028 1.024 8.831 1.024 6.553.299 12.692-1.086 16.77-3.408 4.949-2.817 8.236-6.804 9.831-10.971 2.999-7.832.32-15.594-4.321-19.777-.789-.773-1.902-1.64-2.964-2.33a38.454 38.454 0 0 0-7.325-3.672 44.3 44.3 0 0 0-.723-.256c-2.424-.852-4.824-1.653-7.183-2.3-.483-.145-.964-.287-1.442-.427a118.738 118.738 0 0 1-2.57-.73c-.982-.297-1.939-.599-2.873-.905a69.528 69.528 0 0 1-1.958-.686c-.394-.145-.766-.277-1.12-.403-.433-.153-.84-.297-1.23-.446-1.691-.644-3.969-2.436-3.969-5.344.136-2.426 1.755-6.606 9.689-6.606 2.674-.031 5.388.65 7.649 1.498 1.301.45 2.852 1.343 4.066 2.069 1.344.833 2.883 1.989 3.511 2.467.704.528 1.63 1.143 2.527 1.428a8.7 8.7 0 0 0 6.583-.537c3.203-1.814 3.547-5.822 2.743-7.954-.383-1.016-.891-1.833-1.465-2.62-1.901-2.46-4.264-4.438-7.067-5.934a34.262 34.262 0 0 0-8.831-3.277c-3.087-.68-6.028-1.024-8.831-1.024-4.43 0-9.517.61-13.545 2.333-4.029 1.722-7.016 4.039-9.572 7.432-2.555 3.394-3.43 7.462-3.43 11.78 0 4.666 1.744 10.413 8.501 14.571a40.405 40.405 0 0 0 8.017 3.817c2.453.863 4.859 1.667 7.244 2.321.483.145.964.287 1.442.426Zm-119.98 24.803v-3.744a33.902 33.902 0 0 1-22.589 8.435c-19.603 0-34.442-15.925-34.442-36.087 0-20.162 14.839-36.087 34.442-36.087a33.278 33.278 0 0 1 22.589 8.568v-.946a7.563 7.563 0 0 1 7.485-6.498c1.821 0 3.58.658 4.955 1.851a7.569 7.569 0 0 1 2.531 4.648v59.86a7.569 7.569 0 0 1-2.531 4.647 7.558 7.558 0 0 1-12.44-4.647Z" clip-rule="evenodd"/><path fill="url(#paint2_linear_7369_353344)" d="M94.038 60.792c0-12.672-9.262-22.204-20.963-22.204s-20.548 9.135-20.964 21.24v.964c0 12.672 9.263 22.205 20.964 22.205 11.7 0 20.963-9.533 20.963-22.205Z"/><defs><linearGradient id="paint0_linear_7369_353344" x1="-18.007" x2="156.863" y1="0" y2="266.544" gradientUnits="userSpaceOnUse"><stop stop-color="#FFD057"/><stop offset=".499" stop-color="#FFEFB6"/><stop offset="1" stop-color="#FFD057"/></linearGradient><linearGradient id="paint1_linear_7369_353344" x1="-18.007" x2="156.863" y1="0" y2="266.544" gradientUnits="userSpaceOnUse"><stop stop-color="#FFD057"/><stop offset=".499" stop-color="#FFEFB6"/><stop offset="1" stop-color="#FFD057"/></linearGradient><linearGradient id="paint2_linear_7369_353344" x1="-18.007" x2="156.863" y1="0" y2="266.544" gradientUnits="userSpaceOnUse"><stop stop-color="#FFD057"/><stop offset=".499" stop-color="#FFEFB6"/><stop offset="1" stop-color="#FFD057"/></linearGradient></defs></svg>