<svg xmlns="http://www.w3.org/2000/svg" width="56" height="56" fill="none" viewBox="0 0 56 56"><g clip-path="url(#clip0_10435_47156)"><rect width="56" height="56" fill="url(#paint0_linear_10435_47156)" rx="28"/><path fill="url(#paint1_linear_10435_47156)" d="M50.914 58.947a8.732 8.732 0 0 1-8.733 8.732H13.924a8.732 8.732 0 0 1-8.733-8.732c0-11.429 8.384-20.898 19.338-22.591h.005a23.142 23.142 0 0 1 3.518-.27c4.267 0 8.263 1.168 11.68 3.207 6.696 3.985 11.182 11.296 11.182 19.654Z"/><path fill="url(#paint2_linear_10435_47156)" d="M40.255 21.732c0 6.739-5.463 12.202-12.202 12.202-2.642 0-5.086-.84-7.084-2.266a12.193 12.193 0 0 1-5.117-9.936c0-6.741 5.463-12.205 12.201-12.205 1.283 0 2.521.198 3.685.568 4.938 1.56 8.517 6.18 8.517 11.637Z"/></g><rect width="54.846" height="54.846" x=".577" y=".577" stroke="#F1DA91" stroke-width="1.154" rx="27.423"/><defs><linearGradient id="paint0_linear_10435_47156" x1="28" x2="28" y1="0" y2="56" gradientUnits="userSpaceOnUse"><stop stop-color="#510E83"/><stop offset="1" stop-color="#26063E"/></linearGradient><linearGradient id="paint1_linear_10435_47156" x1="60.343" x2="1.693" y1="67.679" y2="41.534" gradientUnits="userSpaceOnUse"><stop stop-color="#E4AA2F"/><stop offset=".545" stop-color="#F1DD99"/><stop offset=".95" stop-color="#E4AA2F"/></linearGradient><linearGradient id="paint2_linear_10435_47156" x1="45.288" x2="11.015" y1="33.934" y2="23.377" gradientUnits="userSpaceOnUse"><stop stop-color="#E4AA2F"/><stop offset=".545" stop-color="#F1DD99"/><stop offset=".95" stop-color="#E4AA2F"/></linearGradient><clipPath id="clip0_10435_47156"><rect width="56" height="56" fill="#fff" rx="28"/></clipPath></defs></svg>