<svg xmlns="http://www.w3.org/2000/svg" width="100" height="103" fill="none" viewBox="0 0 100 103"><g filter="url(#filter0_d_8546_272711)"><path fill="#6228C3" d="M62.919 70.31 44.1 78.445l-1.012-3.792v-29.98c3.484-6.154 8.233-18.645 8.267-19.38.044-.917.151-1.996 1.823-2.104 1.52-.098 1.52.925 1.52 1.548-.312 6.63 2.588 8.758 4.31 11.89 2 3.64 3.388 4.137 3.91 9.737.524 5.6 0 15.231 0 23.948Z"/><path fill="url(#paint0_linear_8546_272711)" d="m62.92 74.574-19.832 8.133V48.805c-.367-2.151 5.005-10.98 6.16-13.18 1.154-2.2 2.092-9.992 2.108-10.332.043-.918.15-1.997 1.822-2.105 1.521-.098 1.521.925 1.521 1.548-.313 6.63 2.588 8.758 4.309 11.89 2 3.64 3.389 4.137 3.911 9.737.523 5.6 0 19.495 0 28.211Z"/><path fill="url(#paint1_linear_8546_272711)" d="m43.096 84.9-22.96-12.468a4.009 4.009 0 0 1-2.096-3.515c-.022-8.83-.15-23.593-.15-28.357 0-4.177.787-5.627 3.463-9.72 1.38-2.112 3.438-5.578 3.438-9.378v-7.213l2.016-1.484L51.12 23.957v3.234c0 6.99-1.112 7.27-5.22 13.392-2.055 3.065-2.804 5.194-2.804 8.388v35.93Z"/><path fill="url(#paint2_linear_8546_272711)" d="M51.12 27.191c0 6.99-1.112 7.27-5.22 13.392-2.055 3.065-2.804 5.194-2.804 8.388v4.892l-25.2-11.227c-.004-.813-.005-1.514-.005-2.076 0-4.177.786-5.627 3.462-9.72 1.38-2.112 3.438-5.578 3.438-9.378v-7.213l2.016-1.484L51.12 23.957v3.234Z"/><path fill="url(#paint3_linear_8546_272711)" d="M32.904 64.122c2.677-3.841 1.628-8.638.769-10.557-1.677-4.501-5.187-4.344-6.731-3.703-1.07 5.1 2.25 6.848 3.586 7.628 2.736 1.597 2.87 4.865 2.376 6.632Z"/><path fill="url(#paint4_linear_8546_272711)" d="M25.664 50.786c-.49 4.775 2.046 6.457 3.222 7.194 3.778 1.777 3.162 5.49 2.74 7.066-4.35.86-6.729-3.07-7.375-5.142-1.424-5.447.349-8.348 1.413-9.118Z"/><path fill="#8441DA" d="M54.117 23.33c-1.522-.485-1.587.902-1.587 1.559l-.005.11c-.155 3.09-.262 5.235-.63 6.668a.357.357 0 0 1-.028.074c-.204.398-.498.633-.835.892-.272.208-.7.026-.718-.316a.398.398 0 0 0-.578-.335l-.523.265a.4.4 0 0 1-.576-.294l-.075-.47a.4.4 0 0 0-.56-.303l-.677.304a.4.4 0 0 1-.561-.314l-.057-.444a.4.4 0 0 0-.551-.318l-.74.309a.4.4 0 0 1-.55-.31l-.075-.492a.4.4 0 0 0-.556-.308l-.698.305a.4.4 0 0 1-.557-.313l-.061-.453a.4.4 0 0 0-.551-.316l-.735.306a.4.4 0 0 1-.55-.309l-.071-.47a.4.4 0 0 0-.55-.31l-.72.3a.4.4 0 0 1-.549-.31l-.071-.469a.4.4 0 0 0-.55-.31l-.735.305a.4.4 0 0 1-.547-.297l-.093-.507a.4.4 0 0 0-.553-.295l-.68.294a.4.4 0 0 1-.555-.306l-.065-.42a.4.4 0 0 0-.536-.313l-.777.29a.4.4 0 0 1-.531-.289l-.112-.509a.4.4 0 0 0-.54-.286l-.688.275a.4.4 0 0 1-.542-.298l-.089-.475a.4.4 0 0 0-.54-.299l-.726.287a.4.4 0 0 1-.54-.294l-.114-.57a.4.4 0 0 0-.49-.31l-.755.188a.4.4 0 0 1-.494-.338l-.06-.474a.4.4 0 0 0-.535-.325l-.787.29a.4.4 0 0 1-.532-.309l-.076-.443a.4.4 0 0 0-.531-.309l-.77.279a.4.4 0 0 1-.527-.295l-.185-.883a.4.4 0 0 1-.003-.149l1.326-7.82a.4.4 0 0 1 .54-.307L54.116 23.33Z"/><path fill="url(#paint5_linear_8546_272711)" d="M54.158 23.346c-1.167-.41-1.552.776-1.552 1.56-.159 3.178-.181 4.919-.562 6.37-.212.435-.628.68-1.062.96-.288.184-.725-.007-.742-.349a.398.398 0 0 0-.578-.335l-.523.265a.4.4 0 0 1-.577-.294l-.074-.47a.4.4 0 0 0-.56-.303l-.677.304a.4.4 0 0 1-.561-.314l-.057-.444a.4.4 0 0 0-.551-.318l-.74.309a.4.4 0 0 1-.551-.31l-.074-.492a.4.4 0 0 0-.556-.308l-.698.305a.4.4 0 0 1-.557-.313l-.061-.453a.4.4 0 0 0-.551-.316l-.735.306a.4.4 0 0 1-.55-.309l-.072-.47a.4.4 0 0 0-.55-.31l-.719.3a.4.4 0 0 1-.55-.31l-.07-.47a.4.4 0 0 0-.55-.309l-.735.305a.4.4 0 0 1-.547-.297l-.094-.507a.4.4 0 0 0-.552-.295l-.681.293a.4.4 0 0 1-.554-.306l-.065-.419a.4.4 0 0 0-.536-.313l-.777.29a.4.4 0 0 1-.532-.289l-.111-.51a.4.4 0 0 0-.54-.285l-.688.275a.4.4 0 0 1-.542-.298l-.089-.475a.4.4 0 0 0-.54-.299l-.727.287a.4.4 0 0 1-.539-.294l-.114-.57a.4.4 0 0 0-.49-.31L28.29 23a.4.4 0 0 1-.494-.338l-.06-.474a.4.4 0 0 0-.535-.325l-.787.29a.4.4 0 0 1-.533-.31l-.075-.442a.4.4 0 0 0-.531-.309l-.77.279a.4.4 0 0 1-.527-.295l-.191-.912a.402.402 0 0 1-.009-.091l.152-6.778c.098-.524.673-1.478 2.185-1.104l28.043 11.156Z"/><path fill="url(#paint6_linear_8546_272711)" d="m38.89 21.776-4.804-2.062a.6.6 0 0 0-.837.552v2.848c0 2.404-.467 3.373-2.067 5.442a.606.606 0 0 0 .237.927l4.482 1.92c.411.176.89.058 1.173-.289 1.525-1.866 2.423-3.027 2.423-5.921v-2.497a1 1 0 0 0-.606-.92Z"/><path fill="url(#paint7_linear_8546_272711)" d="m56.64 79.169-2.408-37.3 24.051-.337-2.427 37.637c-.58 4.582-6.908 5.759-9.617 5.774-5.922-.087-9.399-3.904-9.6-5.774Z"/><g opacity=".6" style="mix-blend-mode:multiply"><path fill="url(#paint8_linear_8546_272711)" d="m56.64 79.139-2.408-37.3 24.051-.337-2.427 37.637c-.58 4.582-6.908 5.758-9.617 5.774-5.922-.087-9.399-3.905-9.6-5.774Z"/></g><g opacity=".8" style="mix-blend-mode:luminosity"><path fill="url(#paint9_linear_8546_272711)" d="m55.782 79.126-2.417-37.279 1.207 4.02 2.105 33.583c.163.736 2.356 5.094 9.551 5.507 7.572-.455 9.373-3.933 9.62-5.704L77.884 46l1.182-4.499-2.525 38.024c-.67 5.181-7.317 6.204-10.313 6.22-6.547-.09-10.223-4.707-10.446-6.62Z"/></g><path fill="#0037FF" fill-rule="evenodd" d="m56.68 44.105.034 3.514-.033-3.514ZM52.636 38.81c-.13-2.095 1.18-4.225 3.938-5.852l.033 3.514c-2.758 1.627-4.068 3.757-3.938 5.853l-.033-3.514Z" clip-rule="evenodd"/><path fill="#0037FF" fill-rule="evenodd" d="M56.574 32.96c5.302-3.13 13.946-3.21 19.306-.183l.033 3.515c-5.36-3.028-14.004-2.947-19.306.181l-.033-3.514ZM75.88 32.776c2.574 1.453 3.922 3.358 4.043 5.293l.033 3.514c-.12-1.934-1.47-3.84-4.042-5.293l-.033-3.514Z" clip-rule="evenodd"/><path fill="url(#paint10_linear_8546_272711)" fill-rule="evenodd" d="M56.68 44.103c-2.572-1.453-3.92-3.359-4.041-5.294l.033 3.515c.12 1.934 1.47 3.84 4.042 5.293l-.033-3.514Z" clip-rule="evenodd"/><path fill="url(#paint11_linear_8546_272711)" fill-rule="evenodd" d="M79.924 38.068c.13 2.096-1.18 4.227-3.938 5.853l.034 3.514c2.757-1.626 4.068-3.756 3.937-5.852l-.033-3.515Z" clip-rule="evenodd"/><path fill="url(#paint12_linear_8546_272711)" fill-rule="evenodd" d="M75.987 43.921c-5.303 3.128-13.947 3.21-19.307.182l.033 3.514c5.36 3.028 14.004 2.947 19.307-.182l-.033-3.514Z" clip-rule="evenodd"/><path fill="url(#paint13_linear_8546_272711)" d="M56.683 44.102c-5.36-3.028-5.407-8.019-.105-11.147s13.946-3.21 19.306-.181c5.36 3.027 5.407 8.018.105 11.146s-13.946 3.21-19.306.182Z"/><path fill="#1D4DFF" fill-rule="evenodd" d="m57.85 39.462.029 3.11-.03-3.11ZM54.272 34.78c-.116-1.855 1.044-3.74 3.484-5.178l.029 3.109c-2.44 1.44-3.6 3.324-3.484 5.178l-.029-3.109Z" clip-rule="evenodd"/><path fill="#1D4DFF" fill-rule="evenodd" d="M57.754 29.6c4.691-2.769 12.34-2.84 17.082-.162l.029 3.11c-4.743-2.68-12.39-2.607-17.082.16l-.029-3.109ZM74.837 29.44c2.277 1.286 3.47 2.972 3.577 4.684l.03 3.11c-.108-1.713-1.3-3.399-3.577-4.685l-.03-3.109Z" clip-rule="evenodd"/><path fill="url(#paint14_linear_8546_272711)" fill-rule="evenodd" d="M57.848 39.464c-2.276-1.286-3.47-2.972-3.576-4.683l.029 3.11c.106 1.71 1.3 3.397 3.576 4.683l-.029-3.11Z" clip-rule="evenodd"/><path fill="url(#paint15_linear_8546_272711)" fill-rule="evenodd" d="M78.413 34.125c.116 1.855-1.044 3.74-3.483 5.178l.029 3.11c2.44-1.44 3.599-3.324 3.483-5.179l-.029-3.109Z" clip-rule="evenodd"/><path fill="url(#paint16_linear_8546_272711)" fill-rule="evenodd" d="M74.93 39.303c-4.692 2.768-12.34 2.84-17.082.161l.03 3.11c4.742 2.679 12.39 2.607 17.08-.161l-.028-3.11Z" clip-rule="evenodd"/><path fill="url(#paint17_linear_8546_272711)" d="M57.844 39.462c-4.742-2.679-4.784-7.094-.093-9.862 4.692-2.768 12.34-2.84 17.082-.16 4.743 2.678 4.784 7.094.093 9.861-4.691 2.768-12.339 2.84-17.082.161Z"/><path stroke="#fff" stroke-width=".5" d="M59.513 37.823c-3.82-2.093-3.809-5.456.027-7.512 3.836-2.057 10.043-2.027 13.864.065 3.822 2.093 3.81 5.457-.026 7.513s-10.043 2.027-13.865-.066Z" opacity=".3"/><path fill="#1D4DFF" fill-rule="evenodd" d="m68.716 34.531-.053 2.405.053-2.405ZM68.758 32.556c.958-.525 2.49-.491 3.423.076l-.053 2.404c-.933-.566-2.466-.6-3.423-.076l.053-2.404Z" clip-rule="evenodd"/><path fill="#1D4DFF" fill-rule="evenodd" d="M72.18 32.63c.449.273.677.618.688.961l-.054 2.405c-.01-.344-.239-.689-.686-.96l.053-2.406Z" clip-rule="evenodd"/><path fill="url(#paint18_linear_8546_272711)" fill-rule="evenodd" d="M68.715 34.533c-.448-.272-.677-.618-.687-.961l-.053 2.404c.01.344.239.69.686.961l.054-2.404Z" clip-rule="evenodd"/><path fill="url(#paint19_linear_8546_272711)" fill-rule="evenodd" d="M68.029 33.572c-.011-.372.233-.742.73-1.015l-.053 2.404c-.498.273-.742.643-.73 1.015l.053-2.404Z" clip-rule="evenodd"/><path fill="url(#paint20_linear_8546_272711)" fill-rule="evenodd" d="M72.869 33.593c.011.372-.233.743-.731 1.016l-.053 2.404c.498-.273.742-.643.73-1.015l.054-2.405Z" clip-rule="evenodd"/><path fill="url(#paint21_linear_8546_272711)" fill-rule="evenodd" d="M72.139 34.609c-.957.524-2.49.49-3.423-.076l-.053 2.404c.933.567 2.465.601 3.423.076l.053-2.404Z" clip-rule="evenodd"/><path fill="url(#paint22_linear_8546_272711)" d="M75.512 43.83c-.148-7.03-3.352-8.7-4.998-8.578v-.317l2.023-.68c4.643.731 5.113 5.28 4.903 7.606-.142.23-1.553 2.102-1.553 2.102s-.229-.072-.375-.134Z"/><path fill="url(#paint23_linear_8546_272711)" d="M68.713 34.532c-.933-.567-.914-1.451.043-1.976.958-.525 2.49-.49 3.423.076.933.567.913 1.451-.044 1.976-.957.525-2.49.49-3.422-.076Z"/><path fill="url(#paint24_linear_8546_272711)" d="M75.884 43.977c-.138-7.234-3.542-9.14-5.072-9.014l2.078-1.273c4.313.753 5.197 6.44 5.002 8.834-.625.616-1.404 1.109-2.008 1.453Z"/><path fill="url(#paint25_linear_8546_272711)" d="m72.578 50.401 2.39 1.098c.23.157.632.699.404 1.605l-.612 2.321-.656.926-3.591-1.628-.66-1.501 1.537-2.28c.19-.275.694-.768 1.188-.541Z" opacity=".6"/><path fill="url(#paint26_linear_8546_272711)" d="m68.403 57.902-1.493.684c-.167.044-.587.014-.923-.463l-.849-1.235-.17-.687 2.232-1.036.978.3.453 1.654c.052.202.08.642-.228.783Z"/><path fill="url(#paint27_linear_8546_272711)" d="m59.824 60.716-1.462-.713c-.139-.1-.38-.44-.226-.998l.412-1.425.418-.563 2.196 1.058.386.936-.982 1.387c-.121.167-.44.465-.742.318Z"/><path fill="url(#paint28_linear_8546_272711)" d="m56.736 53.319-.004-2.135c.038-.223.301-.703 1.047-.842l1.918-.338.905.169.02 3.2-.882.995-2.202-.358c-.267-.046-.802-.25-.802-.691Z"/><g filter="url(#filter1_i_8546_272711)"><path fill="url(#paint29_linear_8546_272711)" d="M27.333 77.697c-.103-.924 1.075-1.561 1.677-1.764 8.242-.91 24.955-2.908 25.88-3.01.924-.102 1.655.87 1.905 1.368.37 1.223-.871 4.112-1.148 5.487-.477 2.368-2.217 4.872-4.498 6.201-5.603 3.266-13.108 3.312-18.114.684-2.277-1.196-5.008-4.287-4.747-6.591.298-2.639-.936-1.5-.955-2.375Z"/></g><g filter="url(#filter2_i_8546_272711)"><path fill="url(#paint30_linear_8546_272711)" d="M24.77 77.48c.169-2.477 2.42-4.677 3.87-5.469l9.44.965c5.328-.23 14.896-4.496 18.62-1.467 3.723 3.028 3.524 9.225-1.843 9.644-1.948.299-5.139.908-8.894 3.093-3.754 2.185-7.395 1.933-8.745 1.534-1.55-.284-4.119-2.559-5.21-3.66-.798-.806-2.14-.246-3.275-.226-1.411-.181-4.1-2.397-3.962-4.414Z"/></g><path fill="url(#paint31_linear_8546_272711)" d="M55.773 76.347c-.367 1.862-3.548 3.839-9.245 4.468-5.698.629-10.48-.35-10.683-2.185-.203-1.836 7.646-5.203 13.344-5.832 5.697-.63 6.84 2.245 6.584 3.549Z"/><path fill="url(#paint32_linear_8546_272711)" d="M39.6 58.649C29.526 59.76 26.906 66.906 26.91 70.72c-.182 1.752.616 4.382 1.319 5.311 1.99 2.633 6.934 5.284 14.286 4.472 12.513-1.381 13.25-6.583 13.633-8.043.364-1.39.12-3.134-.24-4.856-1.311-3.67-6.232-10.069-16.307-8.956Z"/><path fill="#FFF8BA" d="M39.627 66.234c.3-.202.464-.555.365-.787-.098-.233-.42-.257-.72-.055s-.675.697-.577.93c.099.232.632.114.932-.088ZM37.63 60.688c-.344.033-.608.19-.592.352.017.162.308.267.65.234.344-.032.85-.213.833-.375-.017-.162-.549-.243-.892-.21ZM41.803 70.454c-.201.354-.234.773-.074.937.16.164.453.01.654-.344s.376-1.022.215-1.186c-.16-.163-.594.24-.795.593ZM36.313 71.252c.05-.446-.068-.851-.263-.904-.194-.053-.393.265-.442.711-.05.446.032 1.165.227 1.218.195.053.428-.579.478-1.025ZM46.62 66.567c-.317-.208-.638-.19-.717.04-.079.23.114.587.431.795.317.209.86.338.94.107.079-.23-.337-.733-.654-.942ZM51.6 70.052c.298.257.62.292.722.078.1-.214-.059-.596-.356-.853-.297-.258-.829-.474-.93-.26-.1.215.268.778.565 1.035ZM32.535 67.453c-.3-.252-.622-.282-.721-.065-.099.216.065.595.364.847.3.252.834.459.932.243.098-.216-.276-.773-.575-1.025ZM34.97 63.283c-.29.228-.462.539-.386.695.076.157.371.1.66-.128.288-.227.663-.699.588-.855-.076-.157-.574.06-.863.288ZM31.863 61.338c-.345.127-.61.334-.594.463.018.13.312.132.657.005.345-.126.853-.421.836-.55-.018-.13-.554-.044-.9.082ZM47.987 64.204c.295.26.618.3.72.087.103-.212-.053-.596-.349-.857-.295-.261-.826-.484-.928-.272-.103.213.261.78.557 1.042ZM51.219 61.913c.325.223.622.306.663.185.04-.12-.191-.398-.517-.62-.325-.222-.85-.462-.891-.341-.04.12.42.554.745.776ZM43.136 61.727c.341-.048.597-.246.572-.443-.025-.197-.322-.317-.663-.269-.341.049-.837.281-.812.478.025.196.562.283.903.234ZM45.812 59.272c.344.019.63-.065.637-.187.009-.122-.264-.236-.608-.254-.344-.019-.871.052-.88.174-.007.122.507.249.85.267Z"/><g filter="url(#filter3_f_8546_272711)"><path fill="url(#paint33_linear_8546_272711)" d="M28.602 75.41c1.519 2.51 6.518 5.36 13.911 4.489 10.98-.919 11.035-5.931 8.573-5.514-10.44 6.277-21.94 1.676-23.802-4.138.044 2.025.696 4.135 1.318 5.162Z"/></g></g><defs><linearGradient id="paint0_linear_8546_272711" x1="46.992" x2="56.546" y1="57.323" y2="27.32" gradientUnits="userSpaceOnUse"><stop stop-color="#5E1FAD"/><stop offset="1" stop-color="#8F4DE3"/></linearGradient><linearGradient id="paint1_linear_8546_272711" x1="34.505" x2="34.505" y1="12.765" y2="84.9" gradientUnits="userSpaceOnUse"><stop offset=".541" stop-color="#C2A0FB"/><stop offset="1" stop-color="#9F72EA"/></linearGradient><linearGradient id="paint2_linear_8546_272711" x1="39.791" x2="27.74" y1="19.106" y2="49.256" gradientUnits="userSpaceOnUse"><stop offset=".504" stop-color="#B387FF"/><stop offset=".759" stop-color="#D0ABFF"/><stop offset=".922" stop-color="#C3A1FC"/></linearGradient><linearGradient id="paint3_linear_8546_272711" x1="24.91" x2="26.73" y1="49.429" y2="70.357" gradientUnits="userSpaceOnUse"><stop stop-color="#FFDAAF"/><stop offset="1" stop-color="#BD82F1"/></linearGradient><linearGradient id="paint4_linear_8546_272711" x1="24.91" x2="26.73" y1="49.429" y2="70.357" gradientUnits="userSpaceOnUse"><stop stop-color="#FFDAAF"/><stop offset="1" stop-color="#BD82F1"/></linearGradient><linearGradient id="paint5_linear_8546_272711" x1="37.849" x2="33.923" y1="16.294" y2="26.373" gradientUnits="userSpaceOnUse"><stop stop-color="#CAAAFF"/><stop offset=".297" stop-color="#A86FF1"/><stop offset="1" stop-color="#9B63F5"/></linearGradient><linearGradient id="paint6_linear_8546_272711" x1="39.497" x2="33.29" y1="20.491" y2="31.618" gradientUnits="userSpaceOnUse"><stop stop-color="#F2AE51"/><stop offset=".473" stop-color="#F8D994"/><stop offset="1" stop-color="#FFCA6D"/></linearGradient><linearGradient id="paint7_linear_8546_272711" x1="66.258" x2="66.258" y1="84.943" y2="49.399" gradientUnits="userSpaceOnUse"><stop stop-color="#B36B16"/><stop offset="1" stop-color="#F1D07B"/></linearGradient><linearGradient id="paint8_linear_8546_272711" x1="76.312" x2="56.069" y1="86.481" y2="86.568" gradientUnits="userSpaceOnUse"><stop offset=".065" stop-color="#FFBD59"/><stop offset=".302" stop-color="#E4A323"/><stop offset=".721" stop-color="#FFFCF9"/><stop offset="1" stop-color="#FFD178"/></linearGradient><linearGradient id="paint9_linear_8546_272711" x1="96.59" x2="48.993" y1="87.156" y2="86.652" gradientUnits="userSpaceOnUse"><stop offset=".065" stop-color="#FFA859"/><stop offset=".248" stop-color="#FFAA86"/><stop offset=".589" stop-color="#FFF2EB"/><stop offset=".848" stop-color="#FFDD9B"/><stop offset=".887" stop-color="#EAD9FF"/><stop offset="1" stop-color="#FFA978"/></linearGradient><linearGradient id="paint10_linear_8546_272711" x1="73.196" x2="49.089" y1="45.655" y2="45.655" gradientUnits="userSpaceOnUse"><stop stop-color="#6F20AD"/><stop offset=".61" stop-color="#BF91FF"/><stop offset=".932" stop-color="#7845CB"/></linearGradient><linearGradient id="paint11_linear_8546_272711" x1="73.196" x2="49.089" y1="45.655" y2="45.655" gradientUnits="userSpaceOnUse"><stop stop-color="#6F20AD"/><stop offset=".61" stop-color="#BF91FF"/><stop offset=".932" stop-color="#7845CB"/></linearGradient><linearGradient id="paint12_linear_8546_272711" x1="73.196" x2="49.089" y1="45.655" y2="45.655" gradientUnits="userSpaceOnUse"><stop stop-color="#6F20AD"/><stop offset=".61" stop-color="#BF91FF"/><stop offset=".932" stop-color="#7845CB"/></linearGradient><linearGradient id="paint13_linear_8546_272711" x1="77.137" x2="55.43" y1="44.568" y2="32.307" gradientUnits="userSpaceOnUse"><stop stop-color="#9F46E4"/><stop offset="1" stop-color="#E0C9FF"/></linearGradient><linearGradient id="paint14_linear_8546_272711" x1="72.461" x2="51.131" y1="40.838" y2="40.838" gradientUnits="userSpaceOnUse"><stop stop-color="#6F20AD"/><stop offset=".61" stop-color="#BF91FF"/><stop offset=".932" stop-color="#7845CB"/></linearGradient><linearGradient id="paint15_linear_8546_272711" x1="72.461" x2="51.131" y1="40.838" y2="40.838" gradientUnits="userSpaceOnUse"><stop stop-color="#6F20AD"/><stop offset=".61" stop-color="#BF91FF"/><stop offset=".932" stop-color="#7845CB"/></linearGradient><linearGradient id="paint16_linear_8546_272711" x1="72.461" x2="51.131" y1="40.838" y2="40.838" gradientUnits="userSpaceOnUse"><stop stop-color="#6F20AD"/><stop offset=".61" stop-color="#BF91FF"/><stop offset=".932" stop-color="#7845CB"/></linearGradient><linearGradient id="paint17_linear_8546_272711" x1="75.942" x2="56.736" y1="39.875" y2="29.026" gradientUnits="userSpaceOnUse"><stop stop-color="#9F46E4"/><stop offset="1" stop-color="#E0C9FF"/></linearGradient><linearGradient id="paint18_linear_8546_272711" x1="67.975" x2="72.869" y1="34.938" y2="34.938" gradientUnits="userSpaceOnUse"><stop stop-color="#D8A6FF"/><stop offset=".531" stop-color="#C297FF"/><stop offset=".873" stop-color="#8741C5"/></linearGradient><linearGradient id="paint19_linear_8546_272711" x1="67.975" x2="72.869" y1="34.938" y2="34.938" gradientUnits="userSpaceOnUse"><stop stop-color="#D8A6FF"/><stop offset=".531" stop-color="#C297FF"/><stop offset=".873" stop-color="#8741C5"/></linearGradient><linearGradient id="paint20_linear_8546_272711" x1="67.975" x2="72.869" y1="34.938" y2="34.938" gradientUnits="userSpaceOnUse"><stop stop-color="#D8A6FF"/><stop offset=".531" stop-color="#C297FF"/><stop offset=".873" stop-color="#8741C5"/></linearGradient><linearGradient id="paint21_linear_8546_272711" x1="67.975" x2="72.869" y1="34.938" y2="34.938" gradientUnits="userSpaceOnUse"><stop stop-color="#D8A6FF"/><stop offset=".531" stop-color="#C297FF"/><stop offset=".873" stop-color="#8741C5"/></linearGradient><linearGradient id="paint22_linear_8546_272711" x1="73.997" x2="73.997" y1="34.255" y2="43.963" gradientUnits="userSpaceOnUse"><stop offset=".704" stop-color="#C196FF"/><stop offset="1" stop-color="#A450E7"/></linearGradient><linearGradient id="paint23_linear_8546_272711" x1="75.535" x2="84.069" y1="27.626" y2="38.532" gradientUnits="userSpaceOnUse"><stop offset=".219" stop-color="#E3C1FF"/><stop offset=".377" stop-color="#EBCCFF"/><stop offset=".561" stop-color="#DDCDFF"/><stop offset=".955" stop-color="#7020AD"/></linearGradient><linearGradient id="paint24_linear_8546_272711" x1="75.535" x2="84.069" y1="27.626" y2="38.532" gradientUnits="userSpaceOnUse"><stop offset=".219" stop-color="#E3C1FF"/><stop offset=".377" stop-color="#EBCCFF"/><stop offset=".561" stop-color="#DDCDFF"/><stop offset=".955" stop-color="#7020AD"/></linearGradient><linearGradient id="paint25_linear_8546_272711" x1="73.806" x2="70.516" y1="49.285" y2="55.332" gradientUnits="userSpaceOnUse"><stop stop-color="#FFF3D5"/><stop offset="1" stop-color="#FFF3D5" stop-opacity="0"/></linearGradient><linearGradient id="paint26_linear_8546_272711" x1="68.431" x2="66.911" y1="58.937" y2="54.919" gradientUnits="userSpaceOnUse"><stop stop-color="#FFF3D5"/><stop offset="1" stop-color="#FFF3D5" stop-opacity="0"/></linearGradient><linearGradient id="paint27_linear_8546_272711" x1="59.05" x2="61.169" y1="61.388" y2="57.698" gradientUnits="userSpaceOnUse"><stop stop-color="#FFF3D5"/><stop offset="1" stop-color="#FFF3D5" stop-opacity="0"/></linearGradient><linearGradient id="paint28_linear_8546_272711" x1="55.496" x2="61.07" y1="52.793" y2="53.163" gradientUnits="userSpaceOnUse"><stop stop-color="#FFF3D5"/><stop offset="1" stop-color="#FFF3D5" stop-opacity="0"/></linearGradient><linearGradient id="paint29_linear_8546_272711" x1="40.712" x2="41.89" y1="78.563" y2="88.918" gradientUnits="userSpaceOnUse"><stop stop-color="#DA712C"/><stop offset=".699" stop-color="#F5B560"/><stop offset="1" stop-color="#FFC201"/></linearGradient><linearGradient id="paint30_linear_8546_272711" x1="41.289" x2="42.958" y1="70.615" y2="85.732" gradientUnits="userSpaceOnUse"><stop stop-color="#FFF9DC"/><stop offset="1" stop-color="#FFF9DC"/></linearGradient><linearGradient id="paint31_linear_8546_272711" x1="54.443" x2="51.079" y1="79.355" y2="75.443" gradientUnits="userSpaceOnUse"><stop offset=".116" stop-color="#FFC700"/><stop offset="1" stop-color="#F90"/></linearGradient><linearGradient id="paint32_linear_8546_272711" x1="40.291" x2="42.71" y1="58.572" y2="80.483" gradientUnits="userSpaceOnUse"><stop stop-color="#FFCE85"/><stop offset=".644" stop-color="#E68137"/><stop offset=".96" stop-color="#C55618"/></linearGradient><linearGradient id="paint33_linear_8546_272711" x1="29.937" x2="48.112" y1="76.526" y2="76.996" gradientUnits="userSpaceOnUse"><stop stop-color="#F69752"/><stop offset="1" stop-color="#D76E2A"/></linearGradient><filter id="filter0_d_8546_272711" width="82.074" height="96.989" x="7.891" y="5.551" color-interpolation-filters="sRGB" filterUnits="userSpaceOnUse"><feFlood flood-opacity="0" result="BackgroundImageFix"/><feColorMatrix in="SourceAlpha" result="hardAlpha" type="matrix" values="0 0 0 0 0 0 0 0 0 0 0 0 0 0 0 0 0 0 127 0"/><feOffset dy="4"/><feGaussianBlur stdDeviation="5"/><feComposite in2="hardAlpha" operator="out"/><feColorMatrix type="matrix" values="0 0 0 0 0.839216 0 0 0 0 0.72549 0 0 0 0 0.980392 0 0 0 0.5 0"/><feBlend in2="BackgroundImageFix" mode="normal" result="effect1_dropShadow_8546_272711"/><feBlend in="SourceGraphic" in2="effect1_dropShadow_8546_272711" mode="normal" result="shape"/></filter><filter id="filter1_i_8546_272711" width="30.538" height="16.826" x="27.326" y="72.915" color-interpolation-filters="sRGB" filterUnits="userSpaceOnUse"><feFlood flood-opacity="0" result="BackgroundImageFix"/><feBlend in="SourceGraphic" in2="BackgroundImageFix" mode="normal" result="shape"/><feColorMatrix in="SourceAlpha" result="hardAlpha" type="matrix" values="0 0 0 0 0 0 0 0 0 0 0 0 0 0 0 0 0 0 127 0"/><feOffset dx="1.001" dy="1.201"/><feGaussianBlur stdDeviation=".666"/><feComposite in2="hardAlpha" k2="-1" k3="1" operator="arithmetic"/><feColorMatrix type="matrix" values="0 0 0 0 1 0 0 0 0 0.978653 0 0 0 0 0.866582 0 0 0 0.7 0"/><feBlend in2="shape" mode="normal" result="effect1_innerShadow_8546_272711"/></filter><filter id="filter2_i_8546_272711" width="34.465" height="15.761" x="24.766" y="70.285" color-interpolation-filters="sRGB" filterUnits="userSpaceOnUse"><feFlood flood-opacity="0" result="BackgroundImageFix"/><feBlend in="SourceGraphic" in2="BackgroundImageFix" mode="normal" result="shape"/><feColorMatrix in="SourceAlpha" result="hardAlpha" type="matrix" values="0 0 0 0 0 0 0 0 0 0 0 0 0 0 0 0 0 0 127 0"/><feOffset dy="-.141"/><feGaussianBlur stdDeviation="1.001"/><feComposite in2="hardAlpha" k2="-1" k3="1" operator="arithmetic"/><feColorMatrix type="matrix" values="0 0 0 0 0.780392 0 0 0 0 0.615686 0 0 0 0 1 0 0 0 1 0"/><feBlend in2="shape" mode="normal" result="effect1_innerShadow_8546_272711"/></filter><filter id="filter3_f_8546_272711" width="29.12" height="13.815" x="25.282" y="68.245" color-interpolation-filters="sRGB" filterUnits="userSpaceOnUse"><feFlood flood-opacity="0" result="BackgroundImageFix"/><feBlend in="SourceGraphic" in2="BackgroundImageFix" mode="normal" result="shape"/><feGaussianBlur result="effect1_foregroundBlur_8546_272711" stdDeviation="1.001"/></filter></defs></svg>