<svg xmlns="http://www.w3.org/2000/svg" width="100" height="105" fill="none" viewBox="0 0 100 105"><g filter="url(#filter0_d_8546_272578)"><g filter="url(#filter1_i_8546_272578)"><path fill="url(#paint0_linear_8546_272578)" d="M40.925 38.98c-4.152 3.567-10.989 7.334-13.888 8.771-1.377.683-4.207 1.274-4.272-1.366-.066-2.72 1.883-3.613 3.892-6.016 1.445-1.613 1.809-2.158 2.452-4.76 0-7.757-.576-13.968 4.527-17.963 5.257-3.251 9.16-5.611 11.75-7.064 2.072-1.163 2.63.822 2.649 1.96.09.913-.223 3.211-2.197 5.104-2.467 2.366-7.985 5.024-8.289 5.262-.304.24-.955.674-.77 1.151.147.383.69.333.944.26 1.74-.892 5.54-2.915 6.835-3.864 1.617-1.187 2.308.449 2.372 1.186.13 1.485.002 3.683-1.544 5.546-1.236 1.49-6.254 4.27-8.608 5.473-.26.114-.776.474-.748 1.004.027.531.664.478.979.385.864-.452 3.023-1.574 4.748-2.447 2.156-1.09 4.358 2.919-.832 7.378Z"/></g><path fill="url(#paint1_linear_8546_272578)" d="m36.222 23.33 30.992 14.76-19.2 8.882-30.49-14.87-.096-.133.096-.123 18.698-8.516Z"/><path fill="url(#paint2_linear_8546_272578)" d="m67.514 37.699-.311.654-30.84-14.688-18.808 8.85v-.802l18.815-8.848L67.515 37.7Z"/><g filter="url(#filter2_i_8546_272578)"><g filter="url(#filter3_ii_8546_272578)"><path fill="url(#paint3_linear_8546_272578)" d="m35.96 18.3-.56-.026.516 6.99-2.21 9.703 1.635 18.13 7.374-3.608-1.11-10.11-.646-5.802-3.625-8.25-.463-6.135a.96.96 0 0 0-.91-.892Z"/></g><g filter="url(#filter4_i_8546_272578)"><path fill="url(#paint4_linear_8546_272578)" d="m17.398 34.612 2.27 17.829 15.227-3.868-1.159-13.576 2.185-9.731-.518-6.993-13.941 1.04a.987.987 0 0 0-.905 1.046l.337 5.557-3.496 8.696Z"/></g><path fill="url(#paint5_linear_8546_272578)" d="M18.996 34.17a.087.087 0 0 1 .095-.093l11.753.8c.515.036.95.467.989.983l.45 5.823a.088.088 0 0 1-.1.095L19.406 40.09a.109.109 0 0 1-.092-.1l-.318-5.82Z"/></g><path fill="url(#paint6_linear_8546_272578)" d="m35.922 25.263-14.978.65-.338-5.567a.973.973 0 0 1 .901-1.03l13.953-.99.462 6.937Z"/><g filter="url(#filter5_i_8546_272578)"><path fill="url(#paint7_linear_8546_272578)" d="M63.666 43.35c-2.34 7.579-6.981 11.492-14.614 10.311-6.054-.937-10.23-5.006-10.23-14.345.507-9.893 6.334-11.026 13.833-10.342 8.087.431 14.026 4.613 11.011 14.376Z"/><path fill="url(#paint8_linear_8546_272578)" d="M48.422 30.29c1.168 1.305 4.421 3.316 8.09.927-1.051-1.313-4.143-3.338-8.09-.926Z"/><g filter="url(#filter6_f_8546_272578)"><path fill="url(#paint9_linear_8546_272578)" d="M59.151 44.669c-1.092 5.163-3.768 7.653-8.848 6.867-4.028-.623-6.546-3.427-6.807-9.545.177-6.17 4.215-7.338 9.205-6.883 5.382.287 7.944 2.495 6.45 9.56Z"/><path fill="url(#paint10_linear_8546_272578)" d="M59.151 44.669c-1.092 5.163-3.768 7.653-8.848 6.867-4.028-.623-6.546-3.427-6.807-9.545.177-6.17 4.215-7.338 9.205-6.883 5.382.287 7.944 2.495 6.45 9.56Z"/><path fill="url(#paint11_linear_8546_272578)" d="M59.151 44.669c-1.092 5.163-3.768 7.653-8.848 6.867-4.028-.623-6.546-3.427-6.807-9.545.177-6.17 4.215-7.338 9.205-6.883 5.382.287 7.944 2.495 6.45 9.56Z"/><path fill="url(#paint12_linear_8546_272578)" d="M59.151 44.669c-1.092 5.163-3.768 7.653-8.848 6.867-4.028-.623-6.546-3.427-6.807-9.545.177-6.17 4.215-7.338 9.205-6.883 5.382.287 7.944 2.495 6.45 9.56Z"/><path fill="url(#paint13_linear_8546_272578)" d="M59.151 44.669c-1.092 5.163-3.768 7.653-8.848 6.867-4.028-.623-6.546-3.427-6.807-9.545.177-6.17 4.215-7.338 9.205-6.883 5.382.287 7.944 2.495 6.45 9.56Z"/><path fill="url(#paint14_linear_8546_272578)" d="M57.432 45.55c-.712 3.369-2.132 4.669-5.446 4.156-2.628-.407-4.244-1.452-4.414-5.445.115-4.025 2.75-4.787 6.006-4.49 3.511.187 4.83 1.168 3.854 5.778Z"/><path fill="url(#paint15_linear_8546_272578)" d="M57.432 45.55c-.712 3.369-2.132 4.669-5.446 4.156-2.628-.407-4.244-1.452-4.414-5.445.115-4.025 2.75-4.787 6.006-4.49 3.511.187 4.83 1.168 3.854 5.778Z"/><path fill="url(#paint16_linear_8546_272578)" d="M57.432 45.55c-.712 3.369-2.132 4.669-5.446 4.156-2.628-.407-4.244-1.452-4.414-5.445.115-4.025 2.75-4.787 6.006-4.49 3.511.187 4.83 1.168 3.854 5.778Z"/><path fill="url(#paint17_linear_8546_272578)" d="M57.432 45.55c-.712 3.369-2.132 4.669-5.446 4.156-2.628-.407-4.244-1.452-4.414-5.445.115-4.025 2.75-4.787 6.006-4.49 3.511.187 4.83 1.168 3.854 5.778Z"/><path fill="#C2002F" d="M57.432 45.55c-.712 3.369-2.132 4.669-5.446 4.156-2.628-.407-4.244-1.452-4.414-5.445.115-4.025 2.75-4.787 6.006-4.49 3.511.187 4.83 1.168 3.854 5.778Z"/></g><g filter="url(#filter7_f_8546_272578)" style="mix-blend-mode:overlay"><ellipse cx="44.34" cy="34.759" fill="#fff" rx="3.217" ry="2" transform="rotate(113.338 44.34 34.759)"/></g><path fill="url(#paint18_linear_8546_272578)" d="M52.282 25.35c-1.35 3.428-.98 5.136-.427 6.86.37.078.57.093.815.109-1.207-3.093-.276-5.617.492-6.293l-.88-.676Z"/></g><path fill="url(#paint19_linear_8546_272578)" d="m48.014 46.667 9.6-4.221v43.16l-9.6 5.237V46.667Z"/><path fill="url(#paint20_linear_8546_272578)" d="m57.614 42.446 9.6-4.356v42.32l-9.6 5.197V42.446Z"/><path fill="url(#paint21_linear_8546_272578)" d="M56.898 42.732v34.87l10.316 2.807V38.093l-10.316 4.639Z"/><path fill="url(#paint22_linear_8546_272578)" d="m17.37 32.087.158.015 30.486 14.566v44.174L18.321 75.829a1.945 1.945 0 0 1-1.067-1.736V32.357l.116-.27Z"/><path fill="url(#paint23_linear_8546_272578)" d="m56.864 77.581-8.85 13.257 19.199-10.43-10.349-2.827Z"/><path fill="url(#paint24_linear_8546_272578)" d="m25.898 60.908 7.985 3.747-9.56 6.789c-.374.315-.462.716-.473 1.142-.004.432.085.695.387 1.004.295.227.787.46 1.22.64l9.975 4.836c1.38.564 2.502-.235 2.516-1.451a1.6 1.6 0 0 0-.466-1.146 1.899 1.899 0 0 0-.524-.349 20.015 20.015 0 0 0-.618-.285l-7.789-3.697 9.546-6.489c.307-.3.487-.708.504-1.138a1.597 1.597 0 0 0-.99-1.494c-.197-.08-.21-.136-.592-.281 0 0-9.91-4.628-10.57-4.94-.66-.311-1.758-.191-2.125.583-.389.82-.087 1.757.638 2.096.726.34.569.273.936.433Z"/><path stroke="#FFD057" stroke-width="1.07" d="M24.84 39.63c-.2 6.13.964 12.826 5.2 14.802 4.234 1.975 8.475-1.733 8.475-8.847"/><ellipse cx="24.916" cy="39.059" fill="#FFD057" rx=".889" ry="1.218"/><ellipse cx="38.619" cy="45.513" fill="#FFD057" rx=".889" ry="1.218"/><path fill="#CCA7FF" d="m57.462 42.115.004-.001 9.596-4.354.3.66-9.602 4.357-8.622 3.681-.603.258a1.945 1.945 0 0 1-1.609-.037l-1.428-.689-28.245-13.62-.001-.187a.512.512 0 0 1 .303-.471l27.943 13.48 1.435.692a1.945 1.945 0 0 0 1.608.037l.597-.254 8.324-3.552Z"/><path fill="url(#paint25_linear_8546_272578)" d="m57.464 42.117.004-.002 9.596-4.354.3.66-9.602 4.357-.876.374-7.747 3.307-.603.258a1.945 1.945 0 0 1-1.608-.037l-1.428-.688v-.798l1.435.692a1.945 1.945 0 0 0 1.608.037l.596-.255 7.747-3.305.578-.246Z"/><path fill="url(#paint26_linear_8546_272578)" d="m57.462 42.117.004-.002 9.596-4.354.3.66-9.602 4.357-.862.37-.716-.484 1.28-.547Z"/><g filter="url(#filter8_i_8546_272578)"><path fill="url(#paint27_linear_8546_272578)" d="M75.868 58.69c-4.968 4.269-13.15 8.776-16.62 10.496l-.122.061-.776.386c-.655.328-1.436-.145-1.436-.877v-5.59c0-.516.207-1.01.569-1.378.425-.434.867-.904 1.311-1.435 1.73-1.931 2.935-3.482 2.935-6.996 0-9.283-.69-15.416 5.417-20.196 6.108-4.78 10.961-6.714 14.06-8.453 2.48-1.392 3.147.984 3.17 2.346.108 1.092-.267 3.842-2.629 6.107-3.083 2.6-9.555 6.012-9.918 6.297-.649.322-1.144.806-.923 1.378.177.457.827.398 1.13.312 2.087-1.177 6.527-3.606 8.18-4.544 2.048-1.162 2.7.354 2.838 1.42.099.757.002 4.407-1.847 6.636-1.48 1.783-7.484 5.028-10.3 6.468-.313.136-.93.566-.897 1.202.033.635.795.571 1.172.46a529.274 529.274 0 0 1 5.682-2.928c2.58-1.304 5.215 3.492-.996 8.828Z"/></g></g><defs><linearGradient id="paint0_linear_8546_272578" x1="35.406" x2="53.082" y1="10.229" y2="39.486" gradientUnits="userSpaceOnUse"><stop offset=".107" stop-color="#FFE071"/><stop offset=".338" stop-color="#E9B52D"/><stop offset=".612" stop-color="#E9932D"/></linearGradient><linearGradient id="paint1_linear_8546_272578" x1="42.233" x2="42.233" y1="25.779" y2="46.972" gradientUnits="userSpaceOnUse"><stop stop-color="#A24CE6"/><stop offset=".313" stop-color="#63328A"/></linearGradient><linearGradient id="paint2_linear_8546_272578" x1="18.195" x2="59.511" y1="31.919" y2="35.51" gradientUnits="userSpaceOnUse"><stop stop-color="#CCA7FF"/><stop offset="1" stop-color="#9C55F5"/></linearGradient><linearGradient id="paint3_linear_8546_272578" x1="36.454" x2="39.376" y1="18.382" y2="43.076" gradientUnits="userSpaceOnUse"><stop offset=".306" stop-color="#253FC7"/><stop offset="1" stop-color="#7F37DA"/></linearGradient><linearGradient id="paint4_linear_8546_272578" x1="23.677" x2="25.117" y1="18.317" y2="53.243" gradientUnits="userSpaceOnUse"><stop offset=".399" stop-color="#AAC2FF"/><stop offset=".769" stop-color="#3F70EC"/></linearGradient><linearGradient id="paint5_linear_8546_272578" x1="25.248" x2="25.258" y1="34.28" y2="41.801" gradientUnits="userSpaceOnUse"><stop stop-color="#A6CFFF"/><stop offset="1" stop-color="#DDEDFF"/></linearGradient><linearGradient id="paint6_linear_8546_272578" x1="28.497" x2="30.99" y1="17.218" y2="34.696" gradientUnits="userSpaceOnUse"><stop offset=".164" stop-color="#4070EC" stop-opacity="0"/><stop offset=".829" stop-color="#4070EC"/></linearGradient><linearGradient id="paint7_linear_8546_272578" x1="47.505" x2="50.553" y1="28.45" y2="54.675" gradientUnits="userSpaceOnUse"><stop stop-color="#FF5757"/><stop offset=".498" stop-color="#E13454"/><stop offset=".991" stop-color="#FE4143"/></linearGradient><linearGradient id="paint8_linear_8546_272578" x1="51.656" x2="51.86" y1="34.592" y2="30.067" gradientUnits="userSpaceOnUse"><stop offset=".447" stop-color="#FFCC69"/><stop offset="1" stop-color="#FD4E51" stop-opacity="0"/></linearGradient><linearGradient id="paint9_linear_8546_272578" x1="52.992" x2="49.52" y1="34.967" y2="51.386" gradientUnits="userSpaceOnUse"><stop stop-color="#D30C30"/><stop offset="1" stop-color="#D30C30" stop-opacity="0"/></linearGradient><linearGradient id="paint10_linear_8546_272578" x1="52.992" x2="49.52" y1="34.967" y2="51.386" gradientUnits="userSpaceOnUse"><stop stop-color="#D30C30"/><stop offset="1" stop-color="#D30C30" stop-opacity="0"/></linearGradient><linearGradient id="paint11_linear_8546_272578" x1="52.992" x2="49.52" y1="34.967" y2="51.386" gradientUnits="userSpaceOnUse"><stop stop-color="#D30C30"/><stop offset="1" stop-color="#D30C30" stop-opacity="0"/></linearGradient><linearGradient id="paint12_linear_8546_272578" x1="52.992" x2="49.52" y1="34.967" y2="51.386" gradientUnits="userSpaceOnUse"><stop stop-color="#D30C30"/><stop offset="1" stop-color="#D30C30" stop-opacity="0"/></linearGradient><linearGradient id="paint13_linear_8546_272578" x1="52.992" x2="49.52" y1="34.967" y2="51.386" gradientUnits="userSpaceOnUse"><stop stop-color="#D30C30"/><stop offset="1" stop-color="#D30C30" stop-opacity="0"/></linearGradient><linearGradient id="paint14_linear_8546_272578" x1="52.992" x2="49.52" y1="34.967" y2="51.386" gradientUnits="userSpaceOnUse"><stop stop-color="#D30C30"/><stop offset="1" stop-color="#D30C30" stop-opacity="0"/></linearGradient><linearGradient id="paint15_linear_8546_272578" x1="52.992" x2="49.52" y1="34.967" y2="51.386" gradientUnits="userSpaceOnUse"><stop stop-color="#D30C30"/><stop offset="1" stop-color="#D30C30" stop-opacity="0"/></linearGradient><linearGradient id="paint16_linear_8546_272578" x1="52.992" x2="49.52" y1="34.967" y2="51.386" gradientUnits="userSpaceOnUse"><stop stop-color="#D30C30"/><stop offset="1" stop-color="#D30C30" stop-opacity="0"/></linearGradient><linearGradient id="paint17_linear_8546_272578" x1="52.992" x2="49.52" y1="34.967" y2="51.386" gradientUnits="userSpaceOnUse"><stop stop-color="#D30C30"/><stop offset="1" stop-color="#D30C30" stop-opacity="0"/></linearGradient><linearGradient id="paint18_linear_8546_272578" x1="53.055" x2="51.416" y1="24.367" y2="32.118" gradientUnits="userSpaceOnUse"><stop offset=".351" stop-color="#A57A27"/><stop offset="1" stop-color="#884B29"/></linearGradient><linearGradient id="paint19_linear_8546_272578" x1="48.014" x2="57.614" y1="69.37" y2="67.659" gradientUnits="userSpaceOnUse"><stop stop-color="#6F1FAD"/><stop offset="1" stop-color="#8421D1"/></linearGradient><linearGradient id="paint20_linear_8546_272578" x1="48.014" x2="57.614" y1="69.37" y2="67.659" gradientUnits="userSpaceOnUse"><stop stop-color="#6F1FAD"/><stop offset="1" stop-color="#8421D1"/></linearGradient><linearGradient id="paint21_linear_8546_272578" x1="62.888" x2="62.888" y1="38.093" y2="80.409" gradientUnits="userSpaceOnUse"><stop offset=".135" stop-color="#9B55F5"/><stop offset="1" stop-color="#8F36D5"/></linearGradient><linearGradient id="paint22_linear_8546_272578" x1="48.014" x2="17.254" y1="67.199" y2="67.199" gradientUnits="userSpaceOnUse"><stop stop-color="#7020AF"/><stop offset=".045" stop-color="#B57BFF"/><stop offset="1" stop-color="#9F87FF"/></linearGradient><linearGradient id="paint23_linear_8546_272578" x1="59.162" x2="59.162" y1="77.581" y2="90.838" gradientUnits="userSpaceOnUse"><stop offset=".135" stop-color="#9B55F5"/><stop offset="1" stop-color="#9028E2"/></linearGradient><linearGradient id="paint24_linear_8546_272578" x1="31.225" x2="31.225" y1="57.637" y2="79.251" gradientUnits="userSpaceOnUse"><stop stop-color="#FFE8AC"/><stop offset="1" stop-color="#FFCD4B" stop-opacity=".6"/></linearGradient><linearGradient id="paint25_linear_8546_272578" x1="46.286" x2="63.985" y1="47.064" y2="39.603" gradientUnits="userSpaceOnUse"><stop stop-color="#CCA7FF"/><stop offset=".542" stop-color="#9C55F5"/></linearGradient><linearGradient id="paint26_linear_8546_272578" x1="56.887" x2="63.986" y1="43.152" y2="39.603" gradientUnits="userSpaceOnUse"><stop stop-color="#BE90FF"/><stop offset="1" stop-color="#9C55F5"/></linearGradient><linearGradient id="paint27_linear_8546_272578" x1="69.264" x2="90.416" y1="24.285" y2="59.296" gradientUnits="userSpaceOnUse"><stop offset=".209" stop-color="#FBC332"/><stop offset=".569" stop-color="#E9B52D"/><stop offset=".822" stop-color="#D8930D"/></linearGradient><filter id="filter0_d_8546_272578" width="87.141" height="100.614" x="7.252" y="4.229" color-interpolation-filters="sRGB" filterUnits="userSpaceOnUse"><feFlood flood-opacity="0" result="BackgroundImageFix"/><feColorMatrix in="SourceAlpha" result="hardAlpha" type="matrix" values="0 0 0 0 0 0 0 0 0 0 0 0 0 0 0 0 0 0 127 0"/><feOffset dy="4"/><feGaussianBlur stdDeviation="5"/><feComposite in2="hardAlpha" operator="out"/><feColorMatrix type="matrix" values="0 0 0 0 0.839216 0 0 0 0 0.72549 0 0 0 0 0.980392 0 0 0 0.5 0"/><feBlend in2="BackgroundImageFix" mode="normal" result="effect1_dropShadow_8546_272578"/><feBlend in="SourceGraphic" in2="effect1_dropShadow_8546_272578" mode="normal" result="shape"/></filter><filter id="filter1_i_8546_272578" width="26.258" height="39.271" x="22.764" y="10.229" color-interpolation-filters="sRGB" filterUnits="userSpaceOnUse"><feFlood flood-opacity="0" result="BackgroundImageFix"/><feBlend in="SourceGraphic" in2="BackgroundImageFix" mode="normal" result="shape"/><feColorMatrix in="SourceAlpha" result="hardAlpha" type="matrix" values="0 0 0 0 0 0 0 0 0 0 0 0 0 0 0 0 0 0 127 0"/><feOffset dx=".973" dy="1.167"/><feGaussianBlur stdDeviation=".647"/><feComposite in2="hardAlpha" k2="-1" k3="1" operator="arithmetic"/><feColorMatrix type="matrix" values="0 0 0 0 1 0 0 0 0 0.978653 0 0 0 0 0.866582 0 0 0 0.7 0"/><feBlend in2="shape" mode="normal" result="effect1_innerShadow_8546_272578"/></filter><filter id="filter2_i_8546_272578" width="25.511" height="35.212" x="17.398" y="18.273" color-interpolation-filters="sRGB" filterUnits="userSpaceOnUse"><feFlood flood-opacity="0" result="BackgroundImageFix"/><feBlend in="SourceGraphic" in2="BackgroundImageFix" mode="normal" result="shape"/><feColorMatrix in="SourceAlpha" result="hardAlpha" type="matrix" values="0 0 0 0 0 0 0 0 0 0 0 0 0 0 0 0 0 0 127 0"/><feOffset dx=".195" dy=".389"/><feGaussianBlur stdDeviation=".195"/><feComposite in2="hardAlpha" k2="-1" k3="1" operator="arithmetic"/><feColorMatrix type="matrix" values="0 0 0 0 1 0 0 0 0 1 0 0 0 0 1 0 0 0 0.45 0"/><feBlend in2="shape" mode="normal" result="effect1_innerShadow_8546_272578"/></filter><filter id="filter3_ii_8546_272578" width="9.263" height="35.279" x="33.55" y="18.177" color-interpolation-filters="sRGB" filterUnits="userSpaceOnUse"><feFlood flood-opacity="0" result="BackgroundImageFix"/><feBlend in="SourceGraphic" in2="BackgroundImageFix" mode="normal" result="shape"/><feColorMatrix in="SourceAlpha" result="hardAlpha" type="matrix" values="0 0 0 0 0 0 0 0 0 0 0 0 0 0 0 0 0 0 127 0"/><feOffset dx="-.195" dy="-.097"/><feGaussianBlur stdDeviation=".078"/><feComposite in2="hardAlpha" k2="-1" k3="1" operator="arithmetic"/><feColorMatrix type="matrix" values="0 0 0 0 0 0 0 0 0 0 0 0 0 0 0 0 0 0 0.25 0"/><feBlend in2="shape" mode="normal" result="effect1_innerShadow_8546_272578"/><feColorMatrix in="SourceAlpha" result="hardAlpha" type="matrix" values="0 0 0 0 0 0 0 0 0 0 0 0 0 0 0 0 0 0 127 0"/><feOffset dx=".097" dy=".389"/><feGaussianBlur stdDeviation=".18"/><feComposite in2="hardAlpha" k2="-1" k3="1" operator="arithmetic"/><feColorMatrix type="matrix" values="0 0 0 0 1 0 0 0 0 1 0 0 0 0 1 0 0 0 0.25 0"/><feBlend in2="effect1_innerShadow_8546_272578" mode="normal" result="effect2_innerShadow_8546_272578"/></filter><filter id="filter4_i_8546_272578" width="18.813" height="34.264" x="17.107" y="18.176" color-interpolation-filters="sRGB" filterUnits="userSpaceOnUse"><feFlood flood-opacity="0" result="BackgroundImageFix"/><feBlend in="SourceGraphic" in2="BackgroundImageFix" mode="normal" result="shape"/><feColorMatrix in="SourceAlpha" result="hardAlpha" type="matrix" values="0 0 0 0 0 0 0 0 0 0 0 0 0 0 0 0 0 0 127 0"/><feOffset dx="-.292" dy="-.097"/><feGaussianBlur stdDeviation=".195"/><feComposite in2="hardAlpha" k2="-1" k3="1" operator="arithmetic"/><feColorMatrix type="matrix" values="0 0 0 0 0 0 0 0 0 0.098497 0 0 0 0 0.668067 0 0 0 0.27 0"/><feBlend in2="shape" mode="normal" result="effect1_innerShadow_8546_272578"/></filter><filter id="filter5_i_8546_272578" width="26.321" height="29.103" x="38.822" y="25.35" color-interpolation-filters="sRGB" filterUnits="userSpaceOnUse"><feFlood flood-opacity="0" result="BackgroundImageFix"/><feBlend in="SourceGraphic" in2="BackgroundImageFix" mode="normal" result="shape"/><feColorMatrix in="SourceAlpha" result="hardAlpha" type="matrix" values="0 0 0 0 0 0 0 0 0 0 0 0 0 0 0 0 0 0 127 0"/><feOffset dx=".681" dy=".584"/><feGaussianBlur stdDeviation=".754"/><feComposite in2="hardAlpha" k2="-1" k3="1" operator="arithmetic"/><feColorMatrix type="matrix" values="0 0 0 0 1 0 0 0 0 1 0 0 0 0 1 0 0 0 0.46 0"/><feBlend in2="shape" mode="normal" result="effect1_innerShadow_8546_272578"/></filter><filter id="filter6_f_8546_272578" width="24.129" height="24.711" x="39.47" y="30.994" color-interpolation-filters="sRGB" filterUnits="userSpaceOnUse"><feFlood flood-opacity="0" result="BackgroundImageFix"/><feBlend in="SourceGraphic" in2="BackgroundImageFix" mode="normal" result="shape"/><feGaussianBlur result="effect1_foregroundBlur_8546_272578" stdDeviation="2.013"/></filter><filter id="filter7_f_8546_272578" width="7.993" height="9.639" x="40.343" y="29.94" color-interpolation-filters="sRGB" filterUnits="userSpaceOnUse"><feFlood flood-opacity="0" result="BackgroundImageFix"/><feBlend in="SourceGraphic" in2="BackgroundImageFix" mode="normal" result="shape"/><feGaussianBlur result="effect1_foregroundBlur_8546_272578" stdDeviation=".88"/></filter><filter id="filter8_i_8546_272578" width="28.451" height="46.621" x="56.914" y="24.285" color-interpolation-filters="sRGB" filterUnits="userSpaceOnUse"><feFlood flood-opacity="0" result="BackgroundImageFix"/><feBlend in="SourceGraphic" in2="BackgroundImageFix" mode="normal" result="shape"/><feColorMatrix in="SourceAlpha" result="hardAlpha" type="matrix" values="0 0 0 0 0 0 0 0 0 0 0 0 0 0 0 0 0 0 127 0"/><feOffset dx=".973" dy="1.167"/><feGaussianBlur stdDeviation=".647"/><feComposite in2="hardAlpha" k2="-1" k3="1" operator="arithmetic"/><feColorMatrix type="matrix" values="0 0 0 0 1 0 0 0 0 0.978653 0 0 0 0 0.866582 0 0 0 0.7 0"/><feBlend in2="shape" mode="normal" result="effect1_innerShadow_8546_272578"/></filter></defs></svg>