<svg xmlns="http://www.w3.org/2000/svg" width="100" height="102" fill="none" viewBox="0 0 100 102"><g filter="url(#filter0_d_8546_272658)"><path fill="url(#paint0_linear_8546_272658)" stroke="url(#paint1_linear_8546_272658)" stroke-width="4.219" d="M77.644 42.961 49.53 58.5a2.11 2.11 0 0 1-2.04 0L19.374 42.96l27.723-13.816a3.164 3.164 0 0 1 2.823 0l27.723 13.816Z"/><g filter="url(#filter1_i_8546_272658)"><path fill="url(#paint2_linear_8546_272658)" fill-rule="evenodd" d="M39.56 14.422c6.98-2.565 15.005-.316 20.023 4.164 6.451 5.76 8.03 13.456 9.24 21.511 1.012 6.723.973 14.04.936 21.029a726.962 726.962 0 0 0-.013 3.85h-6.438c0-1.344.006-2.681.013-4.008.034-7.002.067-13.73-.863-19.913-1.094-7.27-2.265-13.295-7.162-17.667-3.52-3.142-9.093-4.549-13.516-2.923-4.022 1.477-8.192 5.936-8.087 16.944l-6.437.062c-.123-12.757 4.92-20.336 12.303-23.05Z" clip-rule="evenodd"/></g><path stroke="url(#paint3_linear_8546_272658)" stroke-width="4.219" d="M77.644 42.961 49.53 58.5a2.11 2.11 0 0 1-2.04 0L19.374 42.96l27.723-13.816a3.164 3.164 0 0 1 2.823 0l27.723 13.816Z"/><g filter="url(#filter2_i_8546_272658)"><path fill="url(#paint4_linear_8546_272658)" d="M29.02 21.933c.106-3.136 1.594-8.3 6.69-3.875.822.917 2.602 3.7 3.145 7.507l.38 2.402c.126 1.209.787 2.943 2.426.208.846-1.452 3.12-5.005 5.453-7.603 1.755-1.436 5.02-3.201 4.046 1.233l-2.901 7.952c-.832 1.89-1.602 4.88 1.972 1.71l2.248-2.076c1.16-.767 4.998-.768 4.904 2.28l-.681 11.76-9.725.256-13.19-9.277-.616-.465.058-.008c.046-.04.209-.033 0 0-.054.047.055.159 1.143.37 1.31.232.916.517-.639-2.102-1.943-3.274-3.76-4.508-4.713-10.272Z"/><path fill="url(#paint5_linear_8546_272658)" d="M51.19 45.325c-.082-.974-.332-3.35-.68-5.058.717-1.346 2.236-4.691 2.578-7.304-.605 1.778-2.039 5.565-2.928 6.481-.366-1.642-1.67-5.497-3.958-7.78-2.288-2.284-5.683-7.401-7.095-9.674.381 1.143 1.35 3.713 2.179 4.845-.475.183-1.687.412-2.732-.14.35.327 1.464.945 3.127.797l.266-.024c.3.596 1.436 2.313 3.742 4.7.64.799 2.01 2.681 2.375 3.823.214.398.512 1.118.81 2.128-2.704-.525-9.623-1.136-15.668.621 2.563-.61 9.313-1.487 15.814-.1.453 1.693.874 4.051.958 6.952.15 5.106.87 1.95 1.212-.267Z"/><path fill="url(#paint6_linear_8546_272658)" d="M38.82 15.685c-5.591-5.007-6.826.542-6.744 3.942 1.35 6.296 3.322 7.708 5.552 11.34 1.784 2.905-.535 3.024-1.917 2.72-2.194-.52-3.888-1.834-6.692-.376-2.803 1.46-.071 4.327-.071 4.327 3.75 3.173 6.33 4.542 11.87 5.775l11.871 5.775s.803-5.923 2.295-9.545c1.58-3.84 5.632-9.218 5.632-9.218-.09-3.306-2.438-2.559-3.6-1.772l-2.218 2.165c-3.535 3.3-2.916.086-2.164-1.935l2.537-8.519c.744-4.775-2.554-2.988-4.297-1.498-2.274 2.728-4.429 6.496-5.222 8.04-1.542 2.903-2.338.995-2.544-.323l-.545-2.623c-.801-4.154-2.83-7.247-3.743-8.275Z"/><path fill="url(#paint7_linear_8546_272658)" d="M49.012 43.27c-.78-.64-2.66-2.25-3.936-3.582-1.457-.021-8.41 1.12-14.32-3.887 1.429.78 3.689 2.675 7.479 2.828.468-.16.11-.917-.406-1.682l-1.395-1.766s2.204 2.256 2.823 3.574c2.108 1.044 4.909.232 5.288.102-1.211-1.313-3.852-4.857-4.723-8.528-.872-3.67-3.617-10.101-4.88-12.858.786 1.045 2.5 3.511 3.072 5.015.371-.389 1.117-1.516 1.13-2.914.116.549.125 2.056-.759 3.697l-.141.262c.362.65 1.285 2.805 2.236 6.554.378 1.117 1.332 3.61 2.124 4.636.236.448.705 1.166 1.417 2.049.794-3.103 3.443-10.626 7.68-15.897-1.245 1.709-3.659 5.711-5.562 10.726 2.003-.47 4.046-2.174 4.817-2.967-1.211 1.691-3.811 2.937-4.96 3.349a46.039 46.039 0 0 0-1.604 5.238c1.213 1.432 3 3.208 5.398 4.945 4.218 3.057 1.24 2.01-.778 1.105Z"/><path fill="#469C5B" d="M56.49 31.512c-4.375 3.735-6.414 8.076-6.887 9.78.056 1.35.25 3.257.582.083.331-3.173 4.341-7.897 6.305-9.863Z"/></g><g filter="url(#filter3_i_8546_272658)"><path fill="url(#paint8_linear_8546_272658)" d="M79.644 38.605c2.808-6.213-1.26-7.134-3.843-7.384-.655-4.317-5.702-5.622-7.939-4.75-2.31-2.375-4.946-1.43-5.976-.661-3.117 2.328-6.054 12.907-6 15.04.197 2.942 2.345 3.823 3.394 3.896.062 2.694 2.954 3.538 4.392 3.623.562 1.128 2.65 1.73 3.626 1.474 4.854-1.158 9.596-5.814 12.346-11.238Z"/><path fill="url(#paint9_linear_8546_272658)" d="M74.38 33.666c1.242-.236 2.656.278 3.208.565l-5.266-5.915-6.598-1.445c1.477.746 2.273 2.387 2.486 3.114 2.779.327 5.272 2.59 6.17 3.681Z"/><path fill="url(#paint10_linear_8546_272658)" d="M76.545 27.178c.164-.583-.06-1.245-.263-1.69-.578-.36-1.257-.085-1.717.584-2.318.61-3.241 2.678-3.413 3.635-.857.33-2.802-.356-3.354-.68.162.28.35.712.415.96 2.207.281 4.189 1.517 6.139 3.66.479-.076 1.032-.032 1.155-.028a2.8 2.8 0 0 0-.591-.862c-.836-.894-2.38-.992-2.538-2.606.022-1.864 1.659-2.757 2.475-2.97.774.441 1.45.21 1.692-.003Z"/><path fill="url(#paint11_linear_8546_272658)" d="M74.192 37.312c.677-1.479.931-3.58-1.61-5.46-2.543-1.878-4.927-1.981-5.08-2.259-.153-.278-3.982 1.022-3.982 1.022l-3.825 4.987-1.765 7.277 3.018 2.87c2.086 3.198 4.378 2.351 5.263 1.528 5.492-6.407 7.303-8.487 7.98-9.965Z"/><path fill="url(#paint12_linear_8546_272658)" d="M79.653 37.895c.49-1.28-.798-2.874-1.415-3.204 0 0-1.293-.848-3.153-.532-1.86.315-4.499 3.486-4.499 3.486l-1.023 4.536 1.9 1.61c1.324 1.855 2.651 1.1 3.192.553 3.152-3.079 4.881-5.901 4.998-6.45Z"/><path fill="#6B3F3F" d="m21.494 26.085 1.764-.56c-.34 3.094 1.436 6.185 2.367 7.343l-1.03.583c-2.068-2.516-2.929-5.959-3.101-7.366Z"/><path fill="url(#paint13_linear_8546_272658)" d="M34.444 36.879c-3.586-6.3-8.025-5.869-9.796-4.866-4.54 1.647-4.024 7.12-3.198 9.651-2.697 7.794-.186 11.111 1.406 11.795l6.722 11.908h4.354l12.1-15.237c-.769-8.86-8.046-12.526-11.588-13.251Z"/><path fill="url(#paint14_linear_8546_272658)" d="M34.444 36.879c-3.586-6.3-8.025-5.869-9.796-4.866-4.54 1.647-4.024 7.12-3.198 9.651-2.697 7.794-.186 11.111 1.406 11.795l6.722 11.908h4.354l12.1-15.237c-.769-8.86-8.046-12.526-11.588-13.251Z"/><g filter="url(#filter4_f_8546_272658)"><path stroke="#FBFFE5" stroke-linecap="round" stroke-width=".527" d="M24.089 34.644c-.228 1.307-.333 4.444 1.066 6.525.038.646.191 2.127.5 2.877"/></g><g filter="url(#filter5_f_8546_272658)"><path stroke="#F68216" stroke-linecap="round" stroke-width="1.266" d="M28.21 34.227c1.175.617 2.85 2.458 3.647 4.836.49.424 4.575 2.075 6.703 8.565"/></g></g><g filter="url(#filter6_i_8546_272658)"><path fill="url(#paint15_linear_8546_272658)" d="M64.057 51.667c-.747 6.902-6.789 10.162-12.595 10.162-4.789 0-11.892-4.397-11.351-13.221.505-8.237 8.93-10.138 11.973-10.138 5.074 0 13.021 3.51 11.973 13.197Z"/></g><g filter="url(#filter7_f_8546_272658)"><path fill="url(#paint16_linear_8546_272658)" d="M61.2 50.896c.057 3.633-1.14 8.076-6.344 9.309-4.178 1.368-9.809-2.291-10.46-5.814-.55-2.976 5.957-.385 8.952-.938 2.995-.554 7.301-5.532 7.851-2.557Z"/></g><g filter="url(#filter8_f_8546_272658)"><path fill="url(#paint17_linear_8546_272658)" d="M55.542 43.715c.046.744-1.57 1.45-3.61 1.574-2.04.125-3.732-.377-3.777-1.122-.046-.744 1.571-1.449 3.611-1.574s3.73.377 3.776 1.122Z"/></g><path fill="url(#paint18_linear_8546_272658)" d="M50.86 41.894c.238.485.676.789.865.88.167.266-.068.333-.206.334.008-.11-.072-.381-.462-.594-.39-.214-1.029.594-1.737 1.064-1.826 1.213-3.928.961-5.133.633-1.817-.494-3.242-2.317-3.344-3.85.26-1.372 2.598-2.898 5.618-2.36 2.544.572 3.735 2.284 4.4 3.893Z"/><path fill="url(#paint19_linear_8546_272658)" d="M51.164 42.423c-2.058-1.287-3.789-1.537-4.763-1.802-1.511-.358-3.792-.436-5.573-.278.426-1.522 2.687-2.767 5.467-2.374 2.163.332 3.807 1.926 4.518 3.835l.35.619Z"/><path fill="url(#paint20_linear_8546_272658)" d="M51.02 39.904c-.68 2.08.237 3.685.697 3.968.356.187.418-.052.405-.195-.771-.784.106-2.839.468-3.506-.325-.519-1.354-.392-1.57-.267Z"/><path fill="url(#paint21_linear_8546_272658)" d="m18.018 67.065-1.692-24.032 32.182 17.548 32.191-17.614-1.701 24.098a6.438 6.438 0 0 1-3.205 5.15L54.02 85.563a10.547 10.547 0 0 1-11.023 0L21.222 72.216a6.438 6.438 0 0 1-3.204-5.151Z"/><path fill="url(#paint22_linear_8546_272658)" d="m20.376 42.984 28.133 15.55 28.133-15.55 2.724-1.52.62.309c.928.462.956 1.777.048 2.279L49.755 60.787a2.575 2.575 0 0 1-2.491 0L16.985 44.052a1.288 1.288 0 0 1 .049-2.28l3.16-1.575.182 2.787Z"/><g filter="url(#filter9_i_8546_272658)"><path fill="url(#paint23_linear_8546_272658)" fill-rule="evenodd" d="M39.56 14.422c6.982-2.565 15.006-.316 20.024 4.164 6.451 5.76 8.067 13.456 9.278 21.511 1.01 6.723.898 10.472.86 17.461l-.009 2.163a3.23 3.23 0 0 1-1.76 2.868l-.112.057c-2.09 1.066-4.568-.452-4.557-2.799.034-7.003.142-12.608-.788-18.792-1.093-7.27-2.302-13.295-7.199-17.667-3.52-3.142-9.093-4.549-13.516-2.923-.988-2.711-1.343-3.704-2.22-6.043Z" clip-rule="evenodd"/></g><path fill="url(#paint24_linear_8546_272658)" d="m30.302 50.395.324.663-.325-.663Zm2.5-.4a.738.738 0 1 0-.649-1.327l.649 1.326Zm-2.886 11.251v-9.05h-1.477v9.05h1.477Zm.71-10.188 2.176-1.064-.649-1.326-2.176 1.063.649 1.327Zm-.71 1.137c0-.483.275-.925.71-1.137l-.649-1.327a2.742 2.742 0 0 0-1.538 2.464h1.477Z"/><g filter="url(#filter10_ii_8546_272658)"><path fill="url(#paint25_linear_8546_272658)" d="m24.368 70.491-.39-11.43c-.016-.455.142-.9.443-1.243l3.119-3.556a1.793 1.793 0 0 1 2.919.318l3.614 6.573c.137.25.213.53.221.814l.346 12.391c.039 1.413-1.495 2.314-2.71 1.591l-6.687-3.978a1.793 1.793 0 0 1-.875-1.48Z"/></g></g><g filter="url(#filter11_ii_8546_272658)"><path fill="url(#paint26_linear_8546_272658)" d="M71.656 56.84c.539 2.8-.771 6.582-2.926 8.448-2.154 1.866-5.101.888-5.64-1.912-.54-2.799.77-6.581 2.925-8.448 2.155-1.866 5.102-.887 5.64 1.912Z"/></g><g filter="url(#filter12_f_8546_272658)"><path stroke="url(#paint27_linear_8546_272658)" stroke-width=".633" d="M67.734 55.174c-1.408 1.05-4.051 4.242-3.361 8.597"/></g><defs><linearGradient id="paint0_linear_8546_272658" x1="48.51" x2="48.51" y1="26.085" y2="61.474" gradientUnits="userSpaceOnUse"><stop stop-color="#AB4DF5"/><stop offset="1" stop-color="#7720BB"/></linearGradient><linearGradient id="paint1_linear_8546_272658" x1="16.287" x2="81.151" y1="43.779" y2="43.779" gradientUnits="userSpaceOnUse"><stop stop-color="#D0A8EF"/><stop offset=".487" stop-color="#DCAFFF"/><stop offset="1" stop-color="#B962FC"/></linearGradient><linearGradient id="paint2_linear_8546_272658" x1="49.111" x2="49.111" y1="13.342" y2="47.894" gradientUnits="userSpaceOnUse"><stop stop-color="#DDC7FF"/><stop offset=".593" stop-color="#8A3BC8"/></linearGradient><linearGradient id="paint3_linear_8546_272658" x1="16.287" x2="81.151" y1="43.779" y2="43.779" gradientUnits="userSpaceOnUse"><stop stop-color="#D0A8EF"/><stop offset=".487" stop-color="#DCAFFF"/><stop offset="1" stop-color="#B962FC"/></linearGradient><linearGradient id="paint4_linear_8546_272658" x1="30.581" x2="46.748" y1="17.766" y2="44.56" gradientUnits="userSpaceOnUse"><stop offset=".012" stop-color="#71E57C"/><stop offset=".64" stop-color="#045B31"/></linearGradient><linearGradient id="paint5_linear_8546_272658" x1="41.112" x2="51.292" y1="19.227" y2="47.279" gradientUnits="userSpaceOnUse"><stop stop-color="#C2FFA6"/><stop offset=".552" stop-color="#C2FFA6" stop-opacity="0"/></linearGradient><linearGradient id="paint6_linear_8546_272658" x1="33.448" x2="51.725" y1="15.166" y2="45.046" gradientUnits="userSpaceOnUse"><stop offset=".012" stop-color="#71E57C"/><stop offset=".987" stop-color="#045B31"/></linearGradient><linearGradient id="paint7_linear_8546_272658" x1="30.453" x2="54.353" y1="23.845" y2="40.68" gradientUnits="userSpaceOnUse"><stop stop-color="#C2FFA6"/><stop offset="1" stop-color="#C2FFA6" stop-opacity="0"/></linearGradient><linearGradient id="paint8_linear_8546_272658" x1="84.763" x2="65.596" y1="33.967" y2="43.908" gradientUnits="userSpaceOnUse"><stop offset=".067" stop-color="#FFD600"/><stop offset=".326" stop-color="#FFE645"/><stop offset=".934" stop-color="#FFB000"/></linearGradient><linearGradient id="paint9_linear_8546_272658" x1="73.073" x2="66.964" y1="28.164" y2="36.744" gradientUnits="userSpaceOnUse"><stop offset=".142" stop-color="#EFA906" stop-opacity="0"/><stop offset=".572" stop-color="#EFA906"/></linearGradient><linearGradient id="paint10_linear_8546_272658" x1="76.206" x2="71.294" y1="25.396" y2="33.109" gradientUnits="userSpaceOnUse"><stop stop-color="#9DD245"/><stop offset=".725" stop-color="#4B7D39"/></linearGradient><linearGradient id="paint11_linear_8546_272658" x1="73.825" x2="66.17" y1="38.312" y2="38.937" gradientUnits="userSpaceOnUse"><stop stop-color="#FFEB69"/><stop offset=".614" stop-color="#FFDE01" stop-opacity="0"/></linearGradient><linearGradient id="paint12_linear_8546_272658" x1="79.434" x2="74.583" y1="36.273" y2="39.311" gradientUnits="userSpaceOnUse"><stop stop-color="#FFEF87"/><stop offset="1" stop-color="#FFDE01" stop-opacity="0"/></linearGradient><linearGradient id="paint13_linear_8546_272658" x1="17.742" x2="53.001" y1="64.314" y2="46.684" gradientUnits="userSpaceOnUse"><stop offset=".247" stop-color="#FFEF5B"/><stop offset=".44" stop-color="#E3F32A"/><stop offset=".646" stop-color="#FFB039"/><stop offset=".92" stop-color="#D9E457"/></linearGradient><linearGradient id="paint14_linear_8546_272658" x1="28.082" x2="44.096" y1="36.739" y2="59.653" gradientUnits="userSpaceOnUse"><stop offset=".247" stop-color="#357800" stop-opacity="0"/><stop offset=".92" stop-color="#2C6609"/></linearGradient><linearGradient id="paint15_linear_8546_272658" x1="48.865" x2="51.57" y1="38.504" y2="61.782" gradientUnits="userSpaceOnUse"><stop stop-color="#FAA203"/><stop offset=".242" stop-color="#FFA723"/><stop offset=".667" stop-color="#FF6625"/><stop offset="1" stop-color="#FF3D00"/></linearGradient><linearGradient id="paint16_linear_8546_272658" x1="52.85" x2="51.771" y1="57.161" y2="46.027" gradientUnits="userSpaceOnUse"><stop offset=".142" stop-color="#E94600"/><stop offset="1" stop-color="#E94600" stop-opacity="0"/></linearGradient><linearGradient id="paint17_linear_8546_272658" x1="51.766" x2="51.931" y1="42.593" y2="45.289" gradientUnits="userSpaceOnUse"><stop stop-color="#FF8E25"/><stop offset="1" stop-color="#FF7F25"/></linearGradient><linearGradient id="paint18_linear_8546_272658" x1="53.1" x2="46.826" y1="44.905" y2="33.335" gradientUnits="userSpaceOnUse"><stop offset=".184" stop-color="#068E13"/><stop offset=".8" stop-color="#DDF739"/></linearGradient><linearGradient id="paint19_linear_8546_272658" x1="46.2" x2="44.924" y1="36.684" y2="42.423" gradientUnits="userSpaceOnUse"><stop stop-color="#1C9918"/><stop offset="1" stop-color="#1C9918" stop-opacity="0"/></linearGradient><linearGradient id="paint20_linear_8546_272658" x1="52.178" x2="51.534" y1="44.819" y2="39.281" gradientUnits="userSpaceOnUse"><stop offset=".184" stop-color="#068E13"/><stop offset=".8" stop-color="#DDF739"/></linearGradient><linearGradient id="paint21_linear_8546_272658" x1="80.699" x2="17.421" y1="56.754" y2="56.754" gradientUnits="userSpaceOnUse"><stop stop-color="#AC5DEA"/><stop offset=".471" stop-color="#7020AE"/><stop offset=".553" stop-color="#BE95FF"/><stop offset="1" stop-color="#AD78FE"/></linearGradient><linearGradient id="paint22_linear_8546_272658" x1="48.509" x2="48.509" y1="40.197" y2="61.108" gradientUnits="userSpaceOnUse"><stop stop-color="#D094FF"/><stop offset="1" stop-color="#D094FF"/></linearGradient><linearGradient id="paint23_linear_8546_272658" x1="49.112" x2="49.112" y1="13.342" y2="47.894" gradientUnits="userSpaceOnUse"><stop stop-color="#DDC7FF"/><stop offset="1" stop-color="#8A3BC8"/></linearGradient><linearGradient id="paint24_linear_8546_272658" x1="30.828" x2="30.828" y1="49.331" y2="61.246" gradientUnits="userSpaceOnUse"><stop offset=".086" stop-color="#FFD241"/><stop offset="1" stop-color="#EAA32E"/></linearGradient><linearGradient id="paint25_linear_8546_272658" x1="28.595" x2="41.598" y1="52.338" y2="67.087" gradientUnits="userSpaceOnUse"><stop offset=".209" stop-color="#FFCD4D"/><stop offset=".569" stop-color="#FFC633"/><stop offset=".822" stop-color="#FFA740"/></linearGradient><linearGradient id="paint26_linear_8546_272658" x1="63.193" x2="72.537" y1="53.416" y2="63.21" gradientUnits="userSpaceOnUse"><stop offset=".021" stop-color="#FFCD4D"/><stop offset=".302" stop-color="#FFC633"/><stop offset=".604" stop-color="#EF9F26"/></linearGradient><linearGradient id="paint27_linear_8546_272658" x1="65.017" x2="65.054" y1="55.174" y2="64.789" gradientUnits="userSpaceOnUse"><stop offset=".019" stop-color="#E8C1FF" stop-opacity=".43"/><stop offset=".394" stop-color="#EFDAFB"/><stop offset="1" stop-color="#E8C1FF" stop-opacity="0"/></linearGradient><filter id="filter0_d_8546_272658" width="84.379" height="93.774" x="6.32" y="7.342" color-interpolation-filters="sRGB" filterUnits="userSpaceOnUse"><feFlood flood-opacity="0" result="BackgroundImageFix"/><feColorMatrix in="SourceAlpha" result="hardAlpha" type="matrix" values="0 0 0 0 0 0 0 0 0 0 0 0 0 0 0 0 0 0 127 0"/><feOffset dy="4"/><feGaussianBlur stdDeviation="5"/><feComposite in2="hardAlpha" operator="out"/><feColorMatrix type="matrix" values="0 0 0 0 0.839216 0 0 0 0 0.72549 0 0 0 0 0.980392 0 0 0 0.5 0"/><feBlend in2="BackgroundImageFix" mode="normal" result="effect1_dropShadow_8546_272658"/><feBlend in="SourceGraphic" in2="effect1_dropShadow_8546_272658" mode="normal" result="shape"/></filter><filter id="filter1_i_8546_272658" width="42.52" height="51.635" x="27.254" y="13.342" color-interpolation-filters="sRGB" filterUnits="userSpaceOnUse"><feFlood flood-opacity="0" result="BackgroundImageFix"/><feBlend in="SourceGraphic" in2="BackgroundImageFix" mode="normal" result="shape"/><feColorMatrix in="SourceAlpha" result="hardAlpha" type="matrix" values="0 0 0 0 0 0 0 0 0 0 0 0 0 0 0 0 0 0 127 0"/><feOffset/><feGaussianBlur stdDeviation="2.109"/><feComposite in2="hardAlpha" k2="-1" k3="1" operator="arithmetic"/><feColorMatrix type="matrix" values="0 0 0 0 0.842613 0 0 0 0 0.585824 0 0 0 0 1 0 0 0 1 0"/><feBlend in2="shape" mode="normal" result="effect1_innerShadow_8546_272658"/></filter><filter id="filter2_i_8546_272658" width="33.6" height="36.56" x="27.754" y="13.683" color-interpolation-filters="sRGB" filterUnits="userSpaceOnUse"><feFlood flood-opacity="0" result="BackgroundImageFix"/><feBlend in="SourceGraphic" in2="BackgroundImageFix" mode="normal" result="shape"/><feColorMatrix in="SourceAlpha" result="hardAlpha" type="matrix" values="0 0 0 0 0 0 0 0 0 0 0 0 0 0 0 0 0 0 127 0"/><feOffset dx=".738" dy="1.055"/><feGaussianBlur stdDeviation=".738"/><feComposite in2="hardAlpha" k2="-1" k3="1" operator="arithmetic"/><feColorMatrix type="matrix" values="0 0 0 0 1 0 0 0 0 1 0 0 0 0 1 0 0 0 0.56 0"/><feBlend in2="shape" mode="normal" result="effect1_innerShadow_8546_272658"/></filter><filter id="filter3_i_8546_272658" width="60.44" height="40.513" x="20.154" y="24.959" color-interpolation-filters="sRGB" filterUnits="userSpaceOnUse"><feFlood flood-opacity="0" result="BackgroundImageFix"/><feBlend in="SourceGraphic" in2="BackgroundImageFix" mode="normal" result="shape"/><feColorMatrix in="SourceAlpha" result="hardAlpha" type="matrix" values="0 0 0 0 0 0 0 0 0 0 0 0 0 0 0 0 0 0 127 0"/><feOffset dx="-.105" dy=".105"/><feGaussianBlur stdDeviation=".185"/><feComposite in2="hardAlpha" k2="-1" k3="1" operator="arithmetic"/><feColorMatrix type="matrix" values="0 0 0 0 1 0 0 0 0 1 0 0 0 0 1 0 0 0 0.6 0"/><feBlend in2="shape" mode="normal" result="effect1_innerShadow_8546_272658"/></filter><filter id="filter4_f_8546_272658" width="5.078" height="12.777" x="22.266" y="32.956" color-interpolation-filters="sRGB" filterUnits="userSpaceOnUse"><feFlood flood-opacity="0" result="BackgroundImageFix"/><feBlend in="SourceGraphic" in2="BackgroundImageFix" mode="normal" result="shape"/><feGaussianBlur result="effect1_foregroundBlur_8546_272658" stdDeviation=".712"/></filter><filter id="filter5_f_8546_272658" width="18.684" height="21.733" x="24.043" y="30.061" color-interpolation-filters="sRGB" filterUnits="userSpaceOnUse"><feFlood flood-opacity="0" result="BackgroundImageFix"/><feBlend in="SourceGraphic" in2="BackgroundImageFix" mode="normal" result="shape"/><feGaussianBlur result="effect1_foregroundBlur_8546_272658" stdDeviation="1.767"/></filter><filter id="filter6_i_8546_272658" width="24.068" height="24.414" x="40.082" y="38.47" color-interpolation-filters="sRGB" filterUnits="userSpaceOnUse"><feFlood flood-opacity="0" result="BackgroundImageFix"/><feBlend in="SourceGraphic" in2="BackgroundImageFix" mode="normal" result="shape"/><feColorMatrix in="SourceAlpha" result="hardAlpha" type="matrix" values="0 0 0 0 0 0 0 0 0 0 0 0 0 0 0 0 0 0 127 0"/><feOffset dy="1.055"/><feGaussianBlur stdDeviation="1.15"/><feComposite in2="hardAlpha" k2="-1" k3="1" operator="arithmetic"/><feColorMatrix type="matrix" values="0 0 0 0 1 0 0 0 0 0.908794 0 0 0 0 0.674265 0 0 0 1 0"/><feBlend in2="shape" mode="normal" result="effect1_innerShadow_8546_272658"/></filter><filter id="filter7_f_8546_272658" width="25.254" height="18.96" x="40.155" y="45.747" color-interpolation-filters="sRGB" filterUnits="userSpaceOnUse"><feFlood flood-opacity="0" result="BackgroundImageFix"/><feBlend in="SourceGraphic" in2="BackgroundImageFix" mode="normal" result="shape"/><feGaussianBlur result="effect1_foregroundBlur_8546_272658" stdDeviation="2.104"/></filter><filter id="filter8_f_8546_272658" width="10.194" height="5.54" x="46.752" y="41.172" color-interpolation-filters="sRGB" filterUnits="userSpaceOnUse"><feFlood flood-opacity="0" result="BackgroundImageFix"/><feBlend in="SourceGraphic" in2="BackgroundImageFix" mode="normal" result="shape"/><feGaussianBlur result="effect1_foregroundBlur_8546_272658" stdDeviation=".701"/></filter><filter id="filter9_i_8546_272658" width="30.186" height="49.651" x="39.56" y="13.342" color-interpolation-filters="sRGB" filterUnits="userSpaceOnUse"><feFlood flood-opacity="0" result="BackgroundImageFix"/><feBlend in="SourceGraphic" in2="BackgroundImageFix" mode="normal" result="shape"/><feColorMatrix in="SourceAlpha" result="hardAlpha" type="matrix" values="0 0 0 0 0 0 0 0 0 0 0 0 0 0 0 0 0 0 127 0"/><feOffset/><feGaussianBlur stdDeviation="2.109"/><feComposite in2="hardAlpha" k2="-1" k3="1" operator="arithmetic"/><feColorMatrix type="matrix" values="0 0 0 0 0.842613 0 0 0 0 0.585824 0 0 0 0 1 0 0 0 1 0"/><feBlend in2="shape" mode="normal" result="effect1_innerShadow_8546_272658"/></filter><filter id="filter10_ii_8546_272658" width="11.508" height="23.503" x="23.555" y="53.65" color-interpolation-filters="sRGB" filterUnits="userSpaceOnUse"><feFlood flood-opacity="0" result="BackgroundImageFix"/><feBlend in="SourceGraphic" in2="BackgroundImageFix" mode="normal" result="shape"/><feColorMatrix in="SourceAlpha" result="hardAlpha" type="matrix" values="0 0 0 0 0 0 0 0 0 0 0 0 0 0 0 0 0 0 127 0"/><feOffset dx=".422" dy=".949"/><feGaussianBlur stdDeviation=".701"/><feComposite in2="hardAlpha" k2="-1" k3="1" operator="arithmetic"/><feColorMatrix type="matrix" values="0 0 0 0 1 0 0 0 0 0.978653 0 0 0 0 0.866582 0 0 0 0.7 0"/><feBlend in2="shape" mode="normal" result="effect1_innerShadow_8546_272658"/><feColorMatrix in="SourceAlpha" result="hardAlpha" type="matrix" values="0 0 0 0 0 0 0 0 0 0 0 0 0 0 0 0 0 0 127 0"/><feOffset dx="-.949" dy=".211"/><feGaussianBlur stdDeviation=".211"/><feComposite in2="hardAlpha" k2="-1" k3="1" operator="arithmetic"/><feColorMatrix type="matrix" values="0 0 0 0 0.765022 0 0 0 0 0.504914 0 0 0 0 0 0 0 0 0.53 0"/><feBlend in2="effect1_innerShadow_8546_272658" mode="normal" result="effect2_innerShadow_8546_272658"/></filter><filter id="filter11_ii_8546_272658" width="10.074" height="13.963" x="62.125" y="53.232" color-interpolation-filters="sRGB" filterUnits="userSpaceOnUse"><feFlood flood-opacity="0" result="BackgroundImageFix"/><feBlend in="SourceGraphic" in2="BackgroundImageFix" mode="normal" result="shape"/><feColorMatrix in="SourceAlpha" result="hardAlpha" type="matrix" values="0 0 0 0 0 0 0 0 0 0 0 0 0 0 0 0 0 0 127 0"/><feOffset dx=".422" dy=".949"/><feGaussianBlur stdDeviation=".701"/><feComposite in2="hardAlpha" k2="-1" k3="1" operator="arithmetic"/><feColorMatrix type="matrix" values="0 0 0 0 1 0 0 0 0 0.978653 0 0 0 0 0.866582 0 0 0 0.7 0"/><feBlend in2="shape" mode="normal" result="effect1_innerShadow_8546_272658"/><feColorMatrix in="SourceAlpha" result="hardAlpha" type="matrix" values="0 0 0 0 0 0 0 0 0 0 0 0 0 0 0 0 0 0 127 0"/><feOffset dx="-.844" dy="-.738"/><feGaussianBlur stdDeviation=".459"/><feComposite in2="hardAlpha" k2="-1" k3="1" operator="arithmetic"/><feColorMatrix type="matrix" values="0 0 0 0 0.765022 0 0 0 0 0.504914 0 0 0 0 0 0 0 0 0.53 0"/><feBlend in2="effect1_innerShadow_8546_272658" mode="normal" result="effect2_innerShadow_8546_272658"/></filter><filter id="filter12_f_8546_272658" width="6.09" height="11.01" x="62.889" y="53.865" color-interpolation-filters="sRGB" filterUnits="userSpaceOnUse"><feFlood flood-opacity="0" result="BackgroundImageFix"/><feBlend in="SourceGraphic" in2="BackgroundImageFix" mode="normal" result="shape"/><feGaussianBlur result="effect1_foregroundBlur_8546_272658" stdDeviation=".527"/></filter></defs></svg>