<svg xmlns="http://www.w3.org/2000/svg" width="33" height="32" fill="none" viewBox="0 0 33 32"><path fill="#fff" d="M.5 0h32v32H.5z"/><g filter="url(#filter0_i_1665_195749)"><path fill="#DA8D32" fill-rule="evenodd" d="M9.101 9.02a4.232 4.232 0 0 1 8.464 0v.538H9.1V9.02Zm-1.83.538V9.02a6.061 6.061 0 1 1 12.123 0v.538h1.872a2.875 2.875 0 0 1 2.868 2.686l.892 13.533a3.398 3.398 0 0 1-3.39 3.621H6.005a2.614 2.614 0 0 1-2.608-2.785L4.361 12a2.614 2.614 0 0 1 2.608-2.442h.302Z" clip-rule="evenodd"/><path fill="url(#paint0_linear_1665_195749)" fill-rule="evenodd" d="M9.101 9.02a4.232 4.232 0 0 1 8.464 0v.538H9.1V9.02Zm-1.83.538V9.02a6.061 6.061 0 1 1 12.123 0v.538h1.872a2.875 2.875 0 0 1 2.868 2.686l.892 13.533a3.398 3.398 0 0 1-3.39 3.621H6.005a2.614 2.614 0 0 1-2.608-2.785L4.361 12a2.614 2.614 0 0 1 2.608-2.442h.302Z" clip-rule="evenodd"/><path fill="url(#paint1_linear_1665_195749)" fill-rule="evenodd" d="M14.581 8.663a4.232 4.232 0 0 1 8.464 0v.895H14.58v-.895Zm-1.83.895v-.895a6.061 6.061 0 1 1 12.123 0v.895h1.21A2.614 2.614 0 0 1 28.69 12l.908 13.777a3.398 3.398 0 0 1-3.39 3.622H11.416a3.398 3.398 0 0 1-3.39-3.622L9.095 9.558h3.656Z" clip-rule="evenodd"/><path fill="url(#paint2_linear_1665_195749)" fill-rule="evenodd" d="M14.581 8.663a4.232 4.232 0 0 1 8.464 0v.895H14.58v-.895Zm-1.83.895v-.895a6.061 6.061 0 1 1 12.123 0v.895h1.21A2.614 2.614 0 0 1 28.69 12l.908 13.777a3.398 3.398 0 0 1-3.39 3.622H11.416a3.398 3.398 0 0 1-3.39-3.622L9.095 9.558h3.656Z" clip-rule="evenodd"/><path fill="#fff" d="m14.863 15.937 5.359-.011-6.5 7.795a1.326 1.326 0 0 0-.361.88 1.255 1.255 0 0 0 1.238 1.26l8.31-.017a1.241 1.241 0 0 0 1.234-1.242 1.23 1.23 0 0 0-.764-1.147 1.217 1.217 0 0 0-.475-.09l-5.675.012 6.508-7.823c.236-.231.374-.545.386-.875a1.228 1.228 0 0 0-1.239-1.238l-8.026.017a1.219 1.219 0 0 0-1.145.765 1.248 1.248 0 0 0 1.15 1.714Z"/></g><defs><linearGradient id="paint0_linear_1665_195749" x1="28.674" x2="14.961" y1="-1.253" y2="23.274" gradientUnits="userSpaceOnUse"><stop offset=".037" stop-color="#B974FF"/><stop offset="1" stop-color="#7436C3"/></linearGradient><linearGradient id="paint1_linear_1665_195749" x1="29.606" x2="4.071" y1="29.399" y2="22.412" gradientUnits="userSpaceOnUse"><stop stop-color="#E8A923"/><stop offset=".478" stop-color="#FED852"/><stop offset="1" stop-color="#EEAC21"/></linearGradient><linearGradient id="paint2_linear_1665_195749" x1="27.949" x2="1.19" y1="31.115" y2="16.845" gradientUnits="userSpaceOnUse"><stop stop-color="#9C64F8"/><stop offset=".505" stop-color="#BF9EF6"/><stop offset="1" stop-color="#A574F2"/></linearGradient><filter id="filter0_i_1665_195749" width="26.214" height="26.797" x="3.393" y="2.601" color-interpolation-filters="sRGB" filterUnits="userSpaceOnUse"><feFlood flood-opacity="0" result="BackgroundImageFix"/><feBlend in="SourceGraphic" in2="BackgroundImageFix" mode="normal" result="shape"/><feColorMatrix in="SourceAlpha" result="hardAlpha" type="matrix" values="0 0 0 0 0 0 0 0 0 0 0 0 0 0 0 0 0 0 127 0"/><feOffset/><feGaussianBlur stdDeviation="2.614"/><feComposite in2="hardAlpha" k2="-1" k3="1" operator="arithmetic"/><feColorMatrix type="matrix" values="0 0 0 0 1 0 0 0 0 1 0 0 0 0 1 0 0 0 0.25 0"/><feBlend in2="shape" mode="normal" result="effect1_innerShadow_1665_195749"/></filter></defs></svg>