<svg xmlns="http://www.w3.org/2000/svg" width="100" height="102" fill="none" viewBox="0 0 100 102"><g filter="url(#filter0_d_8546_272611)"><path fill="url(#paint0_linear_8546_272611)" d="M43.077 86.317 75.172 65.79l2.501-15.925-26.947-6.968-4.093 12.056-15.38 8.313-12.995 8.907 12.995 8.366 11.824 5.78Z"/><g filter="url(#filter1_ii_8546_272611)"><path stroke="url(#paint1_linear_8546_272611)" stroke-width="5.868" d="m76.612 38.896 2.612-12.343a4.342 4.342 0 0 0-2.86-5.013l-17.795-5.996a4.342 4.342 0 0 0-5.687 3.521l-1.79 12.046"/></g><path fill="url(#paint2_linear_8546_272611)" d="M44.035 34.03 14.037 47.542l4.806 25.963 14.08-9.654 46.615-23.35-14.028-5.198-21.475-1.273Z"/><path fill="url(#paint3_linear_8546_272611)" d="M39.2 21.987c1.3-2.663 3.75-3.13 5.52-2.94.769.083 1.375.635 1.72 1.327l1.81 3.63-7.187 3.736-1.794-3.745c-.304-.635-.379-1.376-.07-2.008Z"/><g style="mix-blend-mode:multiply"><path fill="url(#paint4_linear_8546_272611)" d="M39.2 21.987c1.3-2.663 3.75-3.13 5.52-2.94.769.083 1.375.635 1.72 1.327l1.81 3.63-7.187 3.736-1.794-3.745c-.304-.635-.379-1.376-.07-2.008Z"/></g><path fill="url(#paint5_linear_8546_272611)" d="M43.435 24.383c7.985-4.072 13.202 2.227 14.813 5.886l10.378 20.02c2.004 3.872 1.441 9.823-6.275 13.136-7.715 3.312-11.447-.993-12.758-3.06l-10.68-21.01c-3.991-8.27 1.352-13.427 4.522-14.972Z"/><path fill="url(#paint6_linear_8546_272611)" d="M40.922 40.239c4.188-7.116 10.498-8.663 14.848-8.721.935-.013 1.775.528 2.236 1.343l4.805 8.492c-8.7.064-15.583 6.192-17.394 8.92L40.922 40.24Z"/><g filter="url(#filter2_i_8546_272611)"><path fill="url(#paint7_linear_8546_272611)" d="m69.348 27.538 7.404 1.35c2.293 1.979 2.1 4.934 1.717 6.164l-6.777 33.824c-5.842-1.515-5.48-1.3-10.635-2.835l8.291-38.503Z"/><path fill="url(#paint8_linear_8546_272611)" d="m69.74 27.577-7.385-1.45c-2.858 1.004-3.759 3.825-3.852 5.11l-2.85 15.61c3.37 3.57-.542 19.47 5.404 19.194l8.683-38.464Z"/><path stroke="url(#paint9_linear_8546_272611)" stroke-linecap="round" stroke-width="2.24" d="m70.938 68.996-7.11-1.389-7.109-1.39"/><g fill-opacity=".85" style="mix-blend-mode:multiply"><path fill="url(#paint10_linear_8546_272611)" d="m65.805 28.437 10.947.45c2.293 1.98 2.1 4.935 1.717 6.165l-6.691 33.46.09.353-.428 1.217c-12.253-1.923-12.43-2.112-13.397-4.251l3.22-15.51 1.913-9.215 2.63-12.669Z"/><path fill="url(#paint11_linear_8546_272611)" d="m65.805 28.437-6.993-1.412c-2.858 1.005-3.758 3.826-3.851 5.111l-2.85 15.61c3.369 3.57.803 12.549 5.932 18.085l7.762-37.394Z"/></g><path stroke="url(#paint12_linear_8546_272611)" stroke-linecap="round" stroke-width="2.24" d="m76.903 28.372-7.11-1.389-7.109-1.39"/><path fill="url(#paint13_linear_8546_272611)" fill-rule="evenodd" d="M67.194 34.033c.916.193 1.996.422 3.325.706.63.134 1.038.751.91 1.382l-1.753 8.622a1.39 1.39 0 0 1-1.448 1.107c-6.782-.43-7.307-.63-11.946-2.506l.103-.563c2.944 1.394 6.423 2.276 11.497 2.62a1.269 1.269 0 0 0 1.328-1.022l1.586-8a1.07 1.07 0 0 0-.815-1.25c-2.314-.52-3.903-.862-5.212-1.143-2.25-.485-3.668-.79-6.506-1.51l.08-.444c4.108.996 5.091 1.204 8.851 2Zm2.693 1.513c.34.076.558.41.49.75l-1.586 8a.842.842 0 0 1-.88.68c-5.061-.344-8.494-1.224-11.387-2.6l1.678-9.476c2.817.714 4.24 1.02 6.485 1.504 1.309.282 2.896.624 5.2 1.142Z" clip-rule="evenodd"/></g><path fill="url(#paint14_linear_8546_272611)" d="m71.748 62.475 1.68-11.725a.64.64 0 0 1 .402-.505l2.517-.98a.64.64 0 0 1 .866.681l-2.165 16.035a.64.64 0 0 1-.277.445l-2.67 1.797-8.96 5.41a.64.64 0 0 1-.457.08l-.42-.085a.64.64 0 0 1-.475-.85l.585-1.58a.643.643 0 0 1 .26-.322c2.511-1.58 7.138-4.892 8.098-5.765.984-.895.751-1.455 1.016-2.636Z"/><path fill="url(#paint15_linear_8546_272611)" d="m62.37 69.212.898-11.782a.64.64 0 0 1 .322-.508l1.354-.767a.64.64 0 0 1 .954.59l-.741 14.493a.64.64 0 0 1-.21.441l-1.614 1.464a.639.639 0 0 1-.085.065l-5.828 3.735a.64.64 0 0 1-.38.1l-.284-.015a.64.64 0 0 1-.6-.547l-.14-.974a.656.656 0 0 1 .319-.658c1.596-.94 4.699-3.045 5.253-3.717.602-.732.773-1.585.783-1.92Z"/><path fill="url(#paint16_linear_8546_272611)" fill-rule="evenodd" d="M56.048 58.447C53.735 69.158 44.335 76.296 35.053 74.39l3.859.957c9.283 1.906 18.683-5.231 20.995-15.942l-3.859-.957Z" clip-rule="evenodd"/><path fill="url(#paint17_linear_8546_272611)" fill-rule="evenodd" d="M35.053 74.39c-9.282-1.907-14.932-12.135-12.62-22.847l3.86.957C23.98 63.21 29.63 73.44 38.913 75.346l-3.86-.956Z" clip-rule="evenodd"/><path fill="url(#paint18_linear_8546_272611)" fill-rule="evenodd" d="M22.433 51.543c2.313-10.71 11.714-17.849 20.996-15.942l3.86.956C38.005 34.651 28.605 41.79 26.292 52.5l-3.86-.957Z" clip-rule="evenodd"/><path fill="url(#paint19_linear_8546_272611)" fill-rule="evenodd" d="M43.43 35.6c9.282 1.907 14.931 12.136 12.618 22.847l3.86.957c2.312-10.712-3.337-20.94-12.62-22.847l-3.859-.956Z" clip-rule="evenodd"/><g filter="url(#filter3_i_8546_272611)"><path fill="url(#paint20_linear_8546_272611)" d="M56.049 58.447C53.736 69.16 44.336 76.296 35.054 74.39c-9.283-1.906-14.933-12.135-12.62-22.846C24.747 40.832 34.147 33.694 43.429 35.6c9.283 1.906 14.933 12.135 12.62 22.846Z"/></g><path fill="url(#paint21_linear_8546_272611)" d="M32.892 50.858a4.906 4.906 0 0 1-1.956-1.524 4.897 4.897 0 0 1-.905-2.255 4.444 4.444 0 0 1 .343-2.319c.32-.733.818-1.339 1.494-1.816a4.673 4.673 0 0 1 2.258-.843 4.59 4.59 0 0 1 2.432.362 4.59 4.59 0 0 1 1.919 1.539c.501.666.807 1.409.916 2.229a4.297 4.297 0 0 1-1.81 4.146 4.612 4.612 0 0 1-2.27.868 4.75 4.75 0 0 1-2.421-.387Zm-2.973 10.436-3.2-1.397 19.088-12.999 3.2 1.397-19.088 12.999Zm4.001-12.79c.512.223 1.017.23 1.515.02a1.99 1.99 0 0 0 1.082-1.08c.223-.513.239-1.014.047-1.504-.185-.508-.533-.873-1.045-1.097-.512-.223-1.017-.23-1.515-.021-.49.192-.847.544-1.07 1.056a1.99 1.99 0 0 0-.059 1.529c.185.507.533.873 1.045 1.096Zm5.273 17.236a4.906 4.906 0 0 1-1.956-1.524 4.899 4.899 0 0 1-.904-2.254 4.494 4.494 0 0 1 .353-2.345c.32-.734.819-1.34 1.494-1.816a4.673 4.673 0 0 1 2.258-.843 4.59 4.59 0 0 1 2.433.361 4.59 4.59 0 0 1 1.918 1.54c.502.665.807 1.408.916 2.228.11.82.004 1.597-.316 2.33a4.345 4.345 0 0 1-1.506 1.842 4.612 4.612 0 0 1-2.269.868 4.75 4.75 0 0 1-2.421-.387Zm1.04-2.38c.511.224 1.016.23 1.514.021a1.99 1.99 0 0 0 1.082-1.081c.224-.512.24-1.014.047-1.504a1.848 1.848 0 0 0-1.045-1.096c-.512-.224-1.017-.231-1.515-.022-.49.193-.847.545-1.07 1.057a1.99 1.99 0 0 0-.059 1.529c.185.507.534.872 1.046 1.096Z"/><path fill="url(#paint22_linear_8546_272611)" fill-rule="evenodd" d="M54.648 51.321C52.335 62.033 42.935 69.17 33.652 67.263l3.86.957c9.282 1.906 18.682-5.231 20.995-15.942l-3.86-.957Z" clip-rule="evenodd"/><path fill="url(#paint23_linear_8546_272611)" fill-rule="evenodd" d="M33.653 67.264c-9.283-1.907-14.933-12.135-12.62-22.847l3.86.957c-2.314 10.711 3.337 20.94 12.62 22.846l-3.86-.956Z" clip-rule="evenodd"/><path fill="url(#paint24_linear_8546_272611)" fill-rule="evenodd" d="M21.033 44.417c2.313-10.71 11.713-17.849 20.996-15.942l3.859.956c-9.283-1.906-18.683 5.232-20.996 15.943l-3.859-.957Z" clip-rule="evenodd"/><path fill="url(#paint25_linear_8546_272611)" fill-rule="evenodd" d="M42.029 28.475C51.31 30.38 56.96 40.61 54.648 51.32l3.86.957c2.312-10.712-3.337-20.94-12.62-22.847l-3.86-.956Z" clip-rule="evenodd"/><g filter="url(#filter4_i_8546_272611)"><path fill="url(#paint26_linear_8546_272611)" d="M54.649 51.321c-2.313 10.712-11.713 17.85-20.996 15.942-9.283-1.906-14.933-12.135-12.62-22.846 2.313-10.711 11.713-17.849 20.996-15.942C51.31 30.38 56.96 40.61 54.649 51.32Z"/></g><path fill="url(#paint27_linear_8546_272611)" d="M31.491 43.732a4.906 4.906 0 0 1-1.955-1.524 4.897 4.897 0 0 1-.905-2.255 4.443 4.443 0 0 1 .342-2.319c.32-.733.819-1.339 1.495-1.816a4.675 4.675 0 0 1 2.257-.843 4.59 4.59 0 0 1 2.433.362 4.59 4.59 0 0 1 1.918 1.539c.502.666.807 1.409.917 2.229a4.298 4.298 0 0 1-1.811 4.146 4.61 4.61 0 0 1-2.27.868 4.75 4.75 0 0 1-2.42-.387ZM28.52 54.168l-3.2-1.397 19.087-12.999 3.2 1.398-19.087 12.998Zm4-12.79c.513.223 1.017.23 1.515.02a1.99 1.99 0 0 0 1.082-1.08c.224-.513.24-1.014.047-1.504-.184-.508-.533-.873-1.045-1.097-.512-.223-1.017-.23-1.514-.021-.49.192-.848.544-1.071 1.056a1.99 1.99 0 0 0-.058 1.529c.184.507.533.873 1.045 1.096Zm5.273 17.236a4.906 4.906 0 0 1-1.955-1.524 4.898 4.898 0 0 1-.905-2.255 4.494 4.494 0 0 1 .354-2.344c.32-.734.818-1.34 1.494-1.816a4.675 4.675 0 0 1 2.258-.843 4.59 4.59 0 0 1 2.432.361 4.59 4.59 0 0 1 1.919 1.54c.501.665.807 1.408.916 2.228.11.82.004 1.597-.317 2.33a4.345 4.345 0 0 1-1.505 1.842 4.611 4.611 0 0 1-2.269.868 4.75 4.75 0 0 1-2.422-.387Zm1.04-2.38c.512.224 1.017.23 1.515.021a1.99 1.99 0 0 0 1.082-1.081c.223-.512.239-1.014.047-1.504-.185-.507-.533-.873-1.045-1.096-.512-.224-1.017-.23-1.515-.022-.49.193-.847.545-1.07 1.057a1.99 1.99 0 0 0-.059 1.529c.185.507.533.872 1.045 1.096Z"/><path fill="url(#paint28_linear_8546_272611)" d="m51.908 75.74.47-12.352a.64.64 0 0 1 .324-.532l1.373-.778a.64.64 0 0 1 .956.572l-.344 15.105a.64.64 0 0 1-.21.46l-1.61 1.46a.64.64 0 0 1-.077.06l-5.822 3.833a.64.64 0 0 1-.386.104l-.28-.015a.64.64 0 0 1-.6-.547l-.14-.974a.66.66 0 0 1 .318-.66c1.595-.954 4.692-3.143 5.245-3.816.603-.731.773-1.584.783-1.92Z"/><path fill="url(#paint29_linear_8546_272611)" d="m20.578 70.02-1.634-13.364a.64.64 0 0 0-.368-.504l-.964-.443a.64.64 0 0 0-.904.652l1.703 15.48a.64.64 0 0 0 .248.44l1.434 1.093 4.861 3.03a.64.64 0 0 0 .427.092l.088-.013a.64.64 0 0 0 .55-.596l.04-.655a.69.69 0 0 0-.37-.64c-1.373-.741-3.828-2.526-4.326-3.036-.551-.564-.753-1.259-.785-1.536Z"/><path fill="url(#paint30_linear_8546_272611)" d="m30.04 76.052-1.017-12.766a.64.64 0 0 0-.33-.51l-.913-.502a.64.64 0 0 0-.947.6l.909 14.848a.64.64 0 0 0 .215.44l1.358 1.2 4.631 3.373a.64.64 0 0 0 .42.122l.087-.006a.64.64 0 0 0 .593-.555l.085-.651a.69.69 0 0 0-.323-.665c-1.316-.838-3.635-2.794-4.095-3.339-.51-.602-.66-1.31-.672-1.589Z"/><path fill="url(#paint31_linear_8546_272611)" d="m14.328 47.619 26.003 14.048 36.886-20.24c1.076-.675 1.742-1.16.292-1.586.043-.175.087-.502.228-1.19l2.412.757c1.172.585 1.282 2.063.135 2.697L41.77 63.232a3.253 3.253 0 0 1-3.147 0l-25.796-14.3c-1.147-.633-.771-1.739.402-2.324l8.252-3.934c-.273.912-.287 1.046-.441 1.742l-6.71 3.203Z"/><path fill="url(#paint32_linear_8546_272611)" fill-rule="evenodd" d="m12.25 48.384 2.915 21.09c.694 2.813 1.698 5.149 4.048 6.506l15.598 10a10.669 10.669 0 0 0 11.361.097l26.904-16.604a8.132 8.132 0 0 0 4.048-6.506l4.002-22.235-39.414 22.235c-1.358.694-1.494.63-2.726.05l-.106-.05-26.63-14.583ZM50.436 64.09a1.28 1.28 0 0 0-.619 1.043l-.544 12.931a1.17 1.17 0 0 0 1.757 1.061 4.193 4.193 0 0 0 2.086-3.478l.394-11.097a1.28 1.28 0 0 0-1.94-1.142l-1.134.682Zm9.944-4.163a1.28 1.28 0 0 1 .572-.997l1.485-.981c.89-.588 2.067.106 1.982 1.17l-.833 10.433a4.078 4.078 0 0 1-2.204 3.304 1.138 1.138 0 0 1-1.656-1.075l.654-11.854Zm10.441-6.39a1.28 1.28 0 0 0-.482.86l-1.244 10.774c-.125 1.082 1.095 1.797 1.979 1.16a4.49 4.49 0 0 0 1.817-3.015l1.361-9.67c.16-1.14-1.15-1.896-2.057-1.186l-1.373 1.076Zm-52.88 6.247a1.067 1.067 0 0 1 1.594-1.061l2.942 1.709c.295.171.49.473.525.813l1.253 12.126c.095.92-.947 1.517-1.692.97l-1.609-1.181a4.054 4.054 0 0 1-1.62-2.742L17.94 59.784Zm11.405 3.546a1.067 1.067 0 0 0-1.576 1.026l1.032 12.155a4.054 4.054 0 0 0 1.48 2.801l1.84 1.498c.716.583 1.784.043 1.74-.88l-.675-13.916a1.067 1.067 0 0 0-.553-.884l-3.288-1.8Z" clip-rule="evenodd"/></g><defs><linearGradient id="paint0_linear_8546_272611" x1="52.454" x2="28.91" y1="86.317" y2="65.834" gradientUnits="userSpaceOnUse"><stop offset=".725" stop-color="#620DA4"/><stop offset="1" stop-color="#7E29C0"/></linearGradient><linearGradient id="paint1_linear_8546_272611" x1="74.195" x2="67.053" y1="14.962" y2="36.731" gradientUnits="userSpaceOnUse"><stop stop-color="#BC90FF"/><stop offset="1" stop-color="#7D2DBB"/></linearGradient><linearGradient id="paint2_linear_8546_272611" x1="16.55" x2="24.924" y1="58.891" y2="72.012" gradientUnits="userSpaceOnUse"><stop offset=".563" stop-color="#A54DE9"/><stop offset=".859" stop-color="#7F2AC0"/></linearGradient><linearGradient id="paint3_linear_8546_272611" x1="38.594" x2="46.517" y1="23.489" y2="19.814" gradientUnits="userSpaceOnUse"><stop stop-color="#D6DAFF"/><stop offset=".608" stop-color="#989FDC"/><stop offset=".963" stop-color="#A8AFED"/></linearGradient><linearGradient id="paint4_linear_8546_272611" x1="41.129" x2="46.911" y1="20.177" y2="29.369" gradientUnits="userSpaceOnUse"><stop stop-color="#D6DAFF" stop-opacity="0"/><stop offset=".594" stop-color="#989FDC"/><stop offset=".963" stop-color="#A8AFED"/></linearGradient><linearGradient id="paint5_linear_8546_272611" x1="40.776" x2="77.456" y1="33.735" y2="19.27" gradientUnits="userSpaceOnUse"><stop offset=".144" stop-color="#FF84B0"/><stop offset=".292" stop-color="#D45EC1"/><stop offset=".444" stop-color="#FF84B1"/></linearGradient><linearGradient id="paint6_linear_8546_272611" x1="43.486" x2="57.281" y1="36.501" y2="31.285" gradientUnits="userSpaceOnUse"><stop offset=".336" stop-color="#FFC8E6"/><stop offset=".701" stop-color="#FF91CC"/><stop offset="1" stop-color="#FFC8E6"/></linearGradient><linearGradient id="paint7_linear_8546_272611" x1="73.763" x2="52.755" y1="62.556" y2="58.715" gradientUnits="userSpaceOnUse"><stop offset=".029" stop-color="#48A572"/><stop offset=".18" stop-color="#5CBB87"/><stop offset=".378" stop-color="#389E5A"/><stop offset=".721" stop-color="#6ECA9E"/><stop offset="1" stop-color="#56AE6C"/></linearGradient><linearGradient id="paint8_linear_8546_272611" x1="73.763" x2="52.755" y1="62.556" y2="58.715" gradientUnits="userSpaceOnUse"><stop offset=".029" stop-color="#48A572"/><stop offset=".18" stop-color="#5CBB87"/><stop offset=".378" stop-color="#389E5A"/><stop offset=".721" stop-color="#6ECA9E"/><stop offset="1" stop-color="#56AE6C"/></linearGradient><linearGradient id="paint9_linear_8546_272611" x1="71.697" x2="54.303" y1="71.461" y2="67.95" gradientUnits="userSpaceOnUse"><stop stop-color="#96A0B2"/><stop offset=".106" stop-color="#BEBEBE"/><stop offset=".355" stop-color="#8593AD"/><stop offset=".724" stop-color="#ECECEC"/><stop offset=".946" stop-color="#7E8BA6"/></linearGradient><linearGradient id="paint10_linear_8546_272611" x1="68.723" x2="85.672" y1="33.156" y2="44.996" gradientUnits="userSpaceOnUse"><stop offset=".172" stop-color="#5CBB87" stop-opacity="0"/><stop offset=".424" stop-color="#9A39C8" stop-opacity=".67"/><stop offset=".965" stop-color="#9A39C8" stop-opacity=".99"/></linearGradient><linearGradient id="paint11_linear_8546_272611" x1="68.723" x2="85.672" y1="33.156" y2="44.996" gradientUnits="userSpaceOnUse"><stop offset=".172" stop-color="#5CBB87" stop-opacity="0"/><stop offset=".424" stop-color="#9A39C8" stop-opacity=".67"/><stop offset=".965" stop-color="#9A39C8" stop-opacity=".99"/></linearGradient><linearGradient id="paint12_linear_8546_272611" x1="77.661" x2="60.268" y1="30.837" y2="27.326" gradientUnits="userSpaceOnUse"><stop stop-color="#96A0B2"/><stop offset=".106" stop-color="#BEBEBE"/><stop offset=".355" stop-color="#8593AD"/><stop offset=".724" stop-color="#ECECEC"/><stop offset=".946" stop-color="#7E8BA6"/></linearGradient><linearGradient id="paint13_linear_8546_272611" x1="70.212" x2="57.013" y1="40.909" y2="37.875" gradientUnits="userSpaceOnUse"><stop stop-color="#9AC2FF"/><stop offset=".611" stop-color="#C9DDFB"/><stop offset="1" stop-color="#9AC3FF"/></linearGradient><linearGradient id="paint14_linear_8546_272611" x1="70.814" x2="65.79" y1="51.387" y2="72.771" gradientUnits="userSpaceOnUse"><stop offset=".126" stop-color="#7727B5"/><stop offset=".84" stop-color="#D094FF"/></linearGradient><linearGradient id="paint15_linear_8546_272611" x1="60.831" x2="59.474" y1="60.894" y2="76.479" gradientUnits="userSpaceOnUse"><stop offset=".126" stop-color="#7727B5"/><stop offset=".84" stop-color="#D094FF"/></linearGradient><linearGradient id="paint16_linear_8546_272611" x1="45.372" x2="51.563" y1="36.019" y2="71.183" gradientUnits="userSpaceOnUse"><stop offset=".225" stop-color="#E0832D"/><stop offset="1" stop-color="#A04D01"/></linearGradient><linearGradient id="paint17_linear_8546_272611" x1="45.372" x2="51.563" y1="36.019" y2="71.183" gradientUnits="userSpaceOnUse"><stop offset=".225" stop-color="#E0832D"/><stop offset="1" stop-color="#A04D01"/></linearGradient><linearGradient id="paint18_linear_8546_272611" x1="45.372" x2="51.563" y1="36.019" y2="71.183" gradientUnits="userSpaceOnUse"><stop offset=".225" stop-color="#E0832D"/><stop offset="1" stop-color="#A04D01"/></linearGradient><linearGradient id="paint19_linear_8546_272611" x1="45.372" x2="51.563" y1="36.019" y2="71.183" gradientUnits="userSpaceOnUse"><stop offset=".225" stop-color="#E0832D"/><stop offset="1" stop-color="#A04D01"/></linearGradient><linearGradient id="paint20_linear_8546_272611" x1="33.382" x2="47.757" y1="32.762" y2="73.013" gradientUnits="userSpaceOnUse"><stop offset=".209" stop-color="#FBC332"/><stop offset=".464" stop-color="#FFD76F"/><stop offset=".674" stop-color="#FCC63B"/><stop offset=".984" stop-color="#B95A16"/></linearGradient><linearGradient id="paint21_linear_8546_272611" x1="37.517" x2="35.78" y1="42.216" y2="65.078" gradientUnits="userSpaceOnUse"><stop stop-color="#AB7009"/><stop offset=".478" stop-color="#EEA343"/><stop offset=".958" stop-color="#B16118"/></linearGradient><linearGradient id="paint22_linear_8546_272611" x1="43.971" x2="50.163" y1="28.893" y2="64.057" gradientUnits="userSpaceOnUse"><stop offset=".225" stop-color="#E0832D"/><stop offset="1" stop-color="#A04D01"/></linearGradient><linearGradient id="paint23_linear_8546_272611" x1="43.971" x2="50.163" y1="28.893" y2="64.057" gradientUnits="userSpaceOnUse"><stop offset=".225" stop-color="#E0832D"/><stop offset="1" stop-color="#A04D01"/></linearGradient><linearGradient id="paint24_linear_8546_272611" x1="43.971" x2="50.163" y1="28.893" y2="64.057" gradientUnits="userSpaceOnUse"><stop offset=".225" stop-color="#E0832D"/><stop offset="1" stop-color="#A04D01"/></linearGradient><linearGradient id="paint25_linear_8546_272611" x1="43.971" x2="50.163" y1="28.893" y2="64.057" gradientUnits="userSpaceOnUse"><stop offset=".225" stop-color="#E0832D"/><stop offset="1" stop-color="#A04D01"/></linearGradient><linearGradient id="paint26_linear_8546_272611" x1="31.982" x2="46.357" y1="25.636" y2="65.886" gradientUnits="userSpaceOnUse"><stop offset=".209" stop-color="#FBC332"/><stop offset=".464" stop-color="#FFD76F"/><stop offset=".674" stop-color="#FCC63B"/><stop offset=".984" stop-color="#B95A16"/></linearGradient><linearGradient id="paint27_linear_8546_272611" x1="36.116" x2="34.38" y1="35.09" y2="57.953" gradientUnits="userSpaceOnUse"><stop stop-color="#AB7009"/><stop offset=".478" stop-color="#EEA343"/><stop offset=".958" stop-color="#B16118"/></linearGradient><linearGradient id="paint28_linear_8546_272611" x1="52.011" x2="49.012" y1="58.599" y2="83.007" gradientUnits="userSpaceOnUse"><stop offset=".138" stop-color="#6916A9"/><stop offset=".932" stop-color="#D094FF"/></linearGradient><linearGradient id="paint29_linear_8546_272611" x1="21.269" x2="23.493" y1="63.013" y2="75.841" gradientUnits="userSpaceOnUse"><stop offset=".153" stop-color="#6916A9"/><stop offset=".84" stop-color="#D094FF"/></linearGradient><linearGradient id="paint30_linear_8546_272611" x1="31.233" x2="32.529" y1="69.114" y2="82.068" gradientUnits="userSpaceOnUse"><stop offset=".153" stop-color="#6916A9"/><stop offset=".84" stop-color="#D094FF"/></linearGradient><linearGradient id="paint31_linear_8546_272611" x1="40.463" x2="40.463" y1="37.242" y2="63.657" gradientUnits="userSpaceOnUse"><stop stop-color="#D094FF"/><stop offset="1" stop-color="#D094FF"/></linearGradient><linearGradient id="paint32_linear_8546_272611" x1="81.126" x2="1.192" y1="58.041" y2="58.041" gradientUnits="userSpaceOnUse"><stop stop-color="#AC5DEA"/><stop offset=".471" stop-color="#7020AE"/><stop offset=".554" stop-color="#BE95FF"/><stop offset=".828" stop-color="#AD78FE"/></linearGradient><filter id="filter0_d_8546_272611" width="90.121" height="95.288" x="2.133" y="6.379" color-interpolation-filters="sRGB" filterUnits="userSpaceOnUse"><feFlood flood-opacity="0" result="BackgroundImageFix"/><feColorMatrix in="SourceAlpha" result="hardAlpha" type="matrix" values="0 0 0 0 0 0 0 0 0 0 0 0 0 0 0 0 0 0 127 0"/><feOffset dy="4"/><feGaussianBlur stdDeviation="5"/><feComposite in2="hardAlpha" operator="out"/><feColorMatrix type="matrix" values="0 0 0 0 0.839216 0 0 0 0 0.72549 0 0 0 0 0.980392 0 0 0 0.5 0"/><feBlend in2="BackgroundImageFix" mode="normal" result="effect1_dropShadow_8546_272611"/><feBlend in="SourceGraphic" in2="effect1_dropShadow_8546_272611" mode="normal" result="shape"/></filter><filter id="filter1_ii_8546_272611" width="35.686" height="28.32" x="47.421" y="11.611" color-interpolation-filters="sRGB" filterUnits="userSpaceOnUse"><feFlood flood-opacity="0" result="BackgroundImageFix"/><feBlend in="SourceGraphic" in2="BackgroundImageFix" mode="normal" result="shape"/><feColorMatrix in="SourceAlpha" result="hardAlpha" type="matrix" values="0 0 0 0 0 0 0 0 0 0 0 0 0 0 0 0 0 0 127 0"/><feOffset dx=".853" dy=".427"/><feGaussianBlur stdDeviation=".555"/><feComposite in2="hardAlpha" k2="-1" k3="1" operator="arithmetic"/><feColorMatrix type="matrix" values="0 0 0 0 1 0 0 0 0 1 0 0 0 0 1 0 0 0 0.49 0"/><feBlend in2="shape" mode="normal" result="effect1_innerShadow_8546_272611"/><feColorMatrix in="SourceAlpha" result="hardAlpha" type="matrix" values="0 0 0 0 0 0 0 0 0 0 0 0 0 0 0 0 0 0 127 0"/><feOffset dx="-1.174" dy="-1.067"/><feGaussianBlur stdDeviation=".384"/><feComposite in2="hardAlpha" k2="-1" k3="1" operator="arithmetic"/><feColorMatrix type="matrix" values="0 0 0 0 0.604246 0 0 0 0 0.199813 0 0 0 0 0.917682 0 0 0 1 0"/><feBlend in2="effect1_innerShadow_8546_272611" mode="normal" result="effect2_innerShadow_8546_272611"/></filter><filter id="filter2_i_8546_272611" width="27.659" height="45.857" x="52.111" y="24.474" color-interpolation-filters="sRGB" filterUnits="userSpaceOnUse"><feFlood flood-opacity="0" result="BackgroundImageFix"/><feBlend in="SourceGraphic" in2="BackgroundImageFix" mode="normal" result="shape"/><feColorMatrix in="SourceAlpha" result="hardAlpha" type="matrix" values="0 0 0 0 0 0 0 0 0 0 0 0 0 0 0 0 0 0 127 0"/><feOffset dx="1.067" dy=".213"/><feGaussianBlur stdDeviation=".624"/><feComposite in2="hardAlpha" k2="-1" k3="1" operator="arithmetic"/><feColorMatrix type="matrix" values="0 0 0 0 1 0 0 0 0 1 0 0 0 0 1 0 0 0 0.71 0"/><feBlend in2="shape" mode="normal" result="effect1_innerShadow_8546_272611"/></filter><filter id="filter3_i_8546_272611" width="35.717" height="40.684" x="21.916" y="35.293" color-interpolation-filters="sRGB" filterUnits="userSpaceOnUse"><feFlood flood-opacity="0" result="BackgroundImageFix"/><feBlend in="SourceGraphic" in2="BackgroundImageFix" mode="normal" result="shape"/><feColorMatrix in="SourceAlpha" result="hardAlpha" type="matrix" values="0 0 0 0 0 0 0 0 0 0 0 0 0 0 0 0 0 0 127 0"/><feOffset dx="1.067" dy="1.28"/><feGaussianBlur stdDeviation=".709"/><feComposite in2="hardAlpha" k2="-1" k3="1" operator="arithmetic"/><feColorMatrix type="matrix" values="0 0 0 0 1 0 0 0 0 0.978653 0 0 0 0 0.866582 0 0 0 0.7 0"/><feBlend in2="shape" mode="normal" result="effect1_innerShadow_8546_272611"/></filter><filter id="filter4_i_8546_272611" width="35.717" height="40.684" x="20.516" y="28.167" color-interpolation-filters="sRGB" filterUnits="userSpaceOnUse"><feFlood flood-opacity="0" result="BackgroundImageFix"/><feBlend in="SourceGraphic" in2="BackgroundImageFix" mode="normal" result="shape"/><feColorMatrix in="SourceAlpha" result="hardAlpha" type="matrix" values="0 0 0 0 0 0 0 0 0 0 0 0 0 0 0 0 0 0 127 0"/><feOffset dx="1.067" dy="1.28"/><feGaussianBlur stdDeviation=".709"/><feComposite in2="hardAlpha" k2="-1" k3="1" operator="arithmetic"/><feColorMatrix type="matrix" values="0 0 0 0 1 0 0 0 0 0.978653 0 0 0 0 0.866582 0 0 0 0.7 0"/><feBlend in2="shape" mode="normal" result="effect1_innerShadow_8546_272611"/></filter></defs></svg>